<svg width="586" height="586" viewBox="65 65 450 450" fill="none" xmlns="http://www.w3.org/2000/svg">
<path d="M307.209 99.1046C305.403 98.9692 304.021 98.4274 303.063 97.4792C302.119 96.5193 301.677 95.2033 301.739 93.5312C301.752 93.1892 301.787 92.633 301.845 91.8625C301.904 91.0793 301.953 90.5114 301.992 90.1587C302.178 88.5213 302.822 87.2994 303.924 86.4928C305.027 85.6736 306.463 85.3303 308.231 85.4628C309.343 85.5461 310.326 85.8104 311.182 86.2556C312.039 86.6881 312.694 87.2707 313.147 88.0033C313.614 88.7242 313.819 89.5461 313.763 90.4692L313.76 90.5071C313.752 90.6081 313.701 90.6932 313.607 90.7624C313.527 90.8198 313.436 90.8448 313.335 90.8372L310.777 90.6455C310.613 90.6332 310.489 90.5922 310.405 90.5224C310.322 90.44 310.257 90.3017 310.208 90.1075C310.079 89.45 309.835 88.9808 309.475 88.6998C309.116 88.4061 308.627 88.2361 308.008 88.1897C306.517 88.078 305.684 88.854 305.509 90.5175C305.471 90.8576 305.425 91.3813 305.372 92.0887C305.319 92.796 305.285 93.3333 305.27 93.7006C305.196 95.3717 305.904 96.2631 307.394 96.3748C308.013 96.4212 308.529 96.3264 308.94 96.0905C309.352 95.8419 309.658 95.4139 309.856 94.8063C309.92 94.6206 309.999 94.4995 310.092 94.443C310.186 94.3738 310.322 94.3459 310.499 94.3591L313.057 94.5508C313.17 94.5593 313.262 94.6043 313.332 94.6858C313.415 94.7682 313.446 94.8658 313.425 94.9785C313.343 95.8997 313.017 96.6882 312.447 97.3441C311.891 97.9883 311.156 98.4668 310.244 98.7794C309.332 99.0795 308.32 99.1879 307.209 99.1046Z" fill="black" fill-opacity="0.9"/>
<path d="M321.519 100.721C319.966 100.487 318.825 99.9368 318.098 99.0714C317.37 98.2059 317.069 97.0974 317.196 95.7459C317.208 95.5811 317.244 95.2984 317.305 94.8976C317.365 94.4968 317.414 94.2159 317.451 94.055C317.726 92.7386 318.352 91.7761 319.327 91.1674C320.305 90.5461 321.545 90.3488 323.048 90.5753C324.564 90.8037 325.697 91.3588 326.448 92.2406C327.201 93.1099 327.515 94.214 327.39 95.553C327.378 95.7177 327.341 96.0005 327.281 96.4013C327.221 96.8021 327.172 97.0829 327.135 97.2439C326.858 98.5728 326.244 99.5434 325.293 100.156C324.343 100.768 323.085 100.957 321.519 100.721ZM321.864 98.4286C322.415 98.5117 322.847 98.4102 323.159 98.1242C323.473 97.8257 323.701 97.3348 323.842 96.6516C323.874 96.5282 323.918 96.2786 323.974 95.9029C324.031 95.5271 324.063 95.2757 324.069 95.1485C324.133 94.4665 324.053 93.9356 323.829 93.5559C323.616 93.1781 323.241 92.9486 322.703 92.8674C321.663 92.7107 321.01 93.304 320.743 94.6473L320.611 95.396L320.517 96.1503C320.438 96.843 320.505 97.3782 320.717 97.7561C320.943 98.1232 321.326 98.3474 321.864 98.4286Z" fill="black" fill-opacity="0.9"/>
<path d="M330.339 101.981C330.203 101.95 330.102 101.881 330.035 101.775C329.969 101.669 329.951 101.548 329.982 101.412L331.969 92.706C332 92.5701 332.069 92.4689 332.175 92.4022C332.281 92.3354 332.402 92.3176 332.538 92.3486L334.557 92.8094C334.693 92.8404 334.794 92.909 334.861 93.0152C334.927 93.1214 334.945 93.2424 334.914 93.3782L334.77 94.008C335.139 93.7024 335.585 93.4858 336.108 93.3583C336.646 93.2212 337.211 93.2203 337.804 93.3556C339.162 93.6657 339.979 94.4109 340.256 95.5913C340.659 95.1897 341.16 94.9013 341.759 94.7261C342.358 94.5509 342.959 94.5324 343.565 94.6705C344.577 94.9016 345.319 95.4348 345.791 96.2701C346.279 97.0959 346.367 98.188 346.057 99.5464L344.856 104.807C344.828 104.931 344.76 105.032 344.651 105.111C344.544 105.178 344.423 105.195 344.288 105.164L342.139 104.674C342.003 104.643 341.895 104.573 341.816 104.464C341.75 104.358 341.732 104.237 341.763 104.101L342.934 98.97C343.075 98.3525 343.047 97.8784 342.849 97.5475C342.664 97.2194 342.356 97.0061 341.924 96.9074C341.528 96.8173 341.169 96.8846 340.845 97.1094C340.523 97.3219 340.294 97.7307 340.155 98.3358L338.984 103.467C338.956 103.59 338.888 103.692 338.779 103.771C338.672 103.837 338.551 103.855 338.416 103.824L336.267 103.334C336.131 103.303 336.03 103.234 335.963 103.128C335.896 103.022 335.878 102.901 335.909 102.765L337.081 97.634C337.219 97.0289 337.183 96.5595 336.973 96.2258C336.779 95.8826 336.478 95.6644 336.07 95.5714C335.675 95.4812 335.309 95.5471 334.973 95.7692C334.651 95.9817 334.423 96.3843 334.288 96.977L333.112 102.127C333.084 102.25 333.016 102.351 332.907 102.43C332.8 102.497 332.679 102.515 332.544 102.484L330.339 101.981Z" fill="black" fill-opacity="0.9"/>
<path d="M352.133 95.862C352 95.8209 351.904 95.745 351.846 95.6341C351.787 95.5233 351.778 95.4013 351.819 95.2681L352.323 93.6341C352.364 93.5009 352.44 93.4051 352.551 93.3465C352.662 93.2879 352.784 93.2791 352.917 93.3202L355.096 93.9922C355.229 94.0333 355.325 94.1093 355.384 94.2201C355.442 94.331 355.451 94.453 355.41 94.5861L354.906 96.2202C354.865 96.3533 354.789 96.4492 354.678 96.5078C354.567 96.5664 354.445 96.5751 354.312 96.5341L352.133 95.862ZM348.819 106.67C348.686 106.629 348.59 106.553 348.532 106.442C348.473 106.332 348.464 106.21 348.505 106.076L351.137 97.5432C351.178 97.4101 351.254 97.3142 351.365 97.2556C351.476 97.197 351.598 97.1882 351.731 97.2293L353.874 97.8902C354.007 97.9312 354.103 98.0072 354.161 98.118C354.22 98.2289 354.229 98.3509 354.188 98.4841L351.555 107.017C351.518 107.138 351.442 107.234 351.328 107.305C351.217 107.364 351.095 107.372 350.962 107.331L348.819 106.67Z" fill="black" fill-opacity="0.9"/>
<path d="M360.776 110.689C360.646 110.638 360.556 110.555 360.506 110.44C360.456 110.325 360.456 110.203 360.507 110.073L363.769 101.76C363.82 101.631 363.903 101.541 364.018 101.491C364.133 101.44 364.255 101.441 364.385 101.492L366.419 102.29C366.549 102.341 366.639 102.424 366.689 102.539C366.751 102.658 366.756 102.783 366.705 102.913L366.442 103.585C366.913 103.321 367.442 103.168 368.03 103.126C368.629 103.09 369.248 103.196 369.884 103.446C370.922 103.853 371.626 104.538 371.997 105.5C372.372 106.45 372.313 107.556 371.817 108.818L369.881 113.752C369.835 113.87 369.752 113.96 369.632 114.022C369.517 114.072 369.395 114.072 369.265 114.021L367.037 113.146C366.919 113.1 366.829 113.017 366.767 112.897C366.721 112.771 366.722 112.648 366.768 112.53L368.663 107.702C368.88 107.148 368.911 106.67 368.756 106.269C368.605 105.856 368.276 105.55 367.769 105.351C367.274 105.157 366.825 105.157 366.421 105.353C366.023 105.536 365.715 105.905 365.497 106.459L363.602 111.288C363.556 111.406 363.473 111.496 363.353 111.558C363.238 111.608 363.116 111.607 362.986 111.557L360.776 110.689Z" fill="black" fill-opacity="0.9"/>
<path d="M376.393 121.993C375.308 121.47 374.515 120.87 374.012 120.192C373.509 119.514 373.219 118.876 373.142 118.276C373.077 117.682 373.118 117.231 373.267 116.923C373.316 116.82 373.406 116.751 373.535 116.715C373.665 116.679 373.787 116.689 373.901 116.744L376.075 117.791C376.189 117.846 376.264 117.91 376.299 117.983C376.34 118.073 376.359 118.194 376.355 118.347C376.343 118.665 376.398 118.945 376.521 119.186C376.638 119.44 376.902 119.665 377.313 119.863C377.838 120.116 378.289 120.171 378.666 120.03C379.038 119.9 379.37 119.532 379.661 118.927L380.214 117.78C379.324 118.139 378.337 118.057 377.253 117.535C376.1 116.98 375.378 116.218 375.086 115.248C374.811 114.272 374.955 113.125 375.519 111.808L375.724 111.337C376.389 109.957 377.22 109.021 378.215 108.53C379.216 108.028 380.322 108.068 381.531 108.651C382.113 108.931 382.572 109.293 382.907 109.735C383.248 110.166 383.481 110.644 383.608 111.169L383.913 110.536C383.974 110.411 384.063 110.327 384.181 110.286C384.311 110.25 384.433 110.259 384.547 110.314L386.516 111.262C386.641 111.323 386.722 111.418 386.758 111.548C386.811 111.671 386.81 111.79 386.755 111.905L382.79 120.138C382.163 121.439 381.297 122.245 380.191 122.557C379.085 122.868 377.819 122.68 376.393 121.993ZM379.249 115.755C379.762 116.002 380.219 116.032 380.618 115.845C381.023 115.647 381.358 115.316 381.623 114.853C381.673 114.779 381.764 114.605 381.896 114.331C382.022 114.068 382.099 113.894 382.126 113.809C382.334 113.319 382.381 112.856 382.267 112.422C382.17 111.981 381.864 111.637 381.351 111.39C380.815 111.132 380.35 111.105 379.956 111.309C379.563 111.513 379.22 111.889 378.928 112.437L378.729 112.806C378.405 113.479 378.261 114.07 378.297 114.58C378.338 115.077 378.655 115.469 379.249 115.755Z" fill="black" fill-opacity="0.9"/>
<path d="M401.995 132.299C401 131.622 400.247 130.894 399.735 130.115C399.223 129.337 398.945 128.588 398.9 127.867C398.872 127.143 399.041 126.491 399.405 125.912C399.462 125.828 399.543 125.776 399.649 125.756C399.772 125.733 399.881 125.753 399.975 125.818L401.953 127.166C402.079 127.252 402.16 127.346 402.198 127.448C402.253 127.547 402.29 127.672 402.31 127.823C402.26 128.188 402.327 128.563 402.509 128.948C402.691 129.333 403.033 129.696 403.536 130.039C404.132 130.446 404.652 130.662 405.094 130.687C405.537 130.713 405.868 130.564 406.09 130.239C406.247 130.009 406.291 129.764 406.224 129.503C406.167 129.249 406.005 128.947 405.738 128.597C405.471 128.246 405.047 127.766 404.467 127.155C403.389 126.037 402.708 125.013 402.423 124.083C402.155 123.149 402.342 122.211 402.984 121.269C403.419 120.631 403.986 120.182 404.684 119.922C405.383 119.662 406.158 119.616 407.01 119.783C407.862 119.95 408.727 120.333 409.607 120.932C410.517 121.553 411.2 122.249 411.656 123.019C412.112 123.79 412.348 124.534 412.365 125.251C412.4 125.964 412.271 126.558 411.978 127.033C411.914 127.127 411.829 127.184 411.723 127.204C411.618 127.224 411.518 127.202 411.423 127.138L409.351 125.725C409.226 125.64 409.135 125.547 409.08 125.448C409.035 125.357 409.014 125.242 409.015 125.105C409.116 124.822 409.083 124.5 408.914 124.14C408.757 123.787 408.473 123.471 408.065 123.193C407.594 122.872 407.176 122.709 406.811 122.706C406.446 122.702 406.152 122.862 405.931 123.187C405.781 123.406 405.724 123.636 405.761 123.875C405.807 124.122 405.945 124.415 406.173 124.754C406.419 125.091 406.797 125.525 407.308 126.057C408.16 126.899 408.781 127.652 409.171 128.316C409.579 128.977 409.773 129.615 409.752 130.23C409.739 130.834 409.515 131.455 409.079 132.094C408.601 132.795 407.98 133.268 407.215 133.513C406.468 133.755 405.637 133.771 404.722 133.561C403.825 133.348 402.916 132.927 401.995 132.299Z" fill="black" fill-opacity="0.9"/>
<path d="M413.681 140.923C412.453 139.944 411.74 138.898 411.542 137.784C411.345 136.671 411.639 135.561 412.424 134.454C412.517 134.317 412.69 134.09 412.943 133.773C413.195 133.456 413.378 133.237 413.491 133.117C414.387 132.114 415.41 131.593 416.559 131.554C417.717 131.505 418.889 131.954 420.078 132.902C421.276 133.857 421.98 134.905 422.189 136.044C422.407 137.173 422.127 138.286 421.349 139.383C421.256 139.52 421.083 139.747 420.831 140.064C420.578 140.381 420.395 140.599 420.283 140.72C419.378 141.733 418.361 142.266 417.232 142.321C416.102 142.377 414.919 141.911 413.681 140.923ZM415.126 139.111C415.562 139.459 415.986 139.586 416.4 139.495C416.821 139.393 417.263 139.082 417.727 138.561C417.816 138.47 417.979 138.276 418.216 137.979C418.453 137.682 418.606 137.48 418.675 137.373C419.072 136.814 419.268 136.314 419.263 135.873C419.269 135.44 419.058 135.054 418.632 134.714C417.811 134.059 416.948 134.246 416.046 135.276L415.557 135.858L415.098 136.464C414.684 137.025 414.474 137.522 414.468 137.955C414.481 138.386 414.7 138.771 415.126 139.111Z" fill="black" fill-opacity="0.9"/>
<path d="M424.692 150.398C423.541 149.33 422.908 148.233 422.794 147.108C422.68 145.983 423.057 144.898 423.923 143.852C424.025 143.723 424.215 143.51 424.49 143.213C424.766 142.916 424.965 142.711 425.086 142.599C426.055 141.666 427.114 141.223 428.263 141.27C429.42 141.307 430.556 141.843 431.671 142.877C432.794 143.919 433.418 145.016 433.541 146.168C433.674 147.31 433.311 148.399 432.454 149.435C432.351 149.565 432.162 149.778 431.886 150.075C431.61 150.372 431.412 150.577 431.291 150.689C430.313 151.631 429.259 152.087 428.129 152.057C426.998 152.028 425.853 151.475 424.692 150.398ZM426.269 148.699C426.677 149.078 427.091 149.237 427.51 149.177C427.938 149.107 428.402 148.829 428.904 148.345C428.999 148.26 429.176 148.079 429.435 147.8C429.693 147.522 429.861 147.332 429.938 147.23C430.375 146.703 430.608 146.219 430.636 145.779C430.674 145.348 430.493 144.946 430.094 144.576C429.323 143.861 428.449 143.983 427.473 144.943L426.942 145.487L426.439 146.057C425.983 146.585 425.737 147.065 425.699 147.497C425.68 147.928 425.869 148.328 426.269 148.699Z" fill="black" fill-opacity="0.9"/>
<path d="M433.036 158.312C432.942 158.21 432.896 158.096 432.901 157.971C432.906 157.846 432.959 157.735 433.061 157.641L439.608 151.567C439.71 151.472 439.823 151.427 439.949 151.432C440.074 151.436 440.184 151.49 440.279 151.592L441.765 153.194C441.86 153.296 441.905 153.409 441.9 153.535C441.904 153.669 441.855 153.784 441.753 153.879L441.224 154.37C441.763 154.336 442.306 154.428 442.853 154.646C443.41 154.873 443.92 155.237 444.386 155.739C445.144 156.556 445.481 157.478 445.398 158.506C445.324 159.525 444.79 160.495 443.797 161.417L439.911 165.023C439.818 165.109 439.704 165.154 439.57 165.158C439.444 165.153 439.334 165.1 439.239 164.997L437.611 163.242C437.525 163.15 437.48 163.036 437.476 162.901C437.49 162.767 437.543 162.657 437.636 162.571L441.439 159.043C441.875 158.638 442.11 158.221 442.144 157.792C442.187 157.355 442.024 156.936 441.653 156.537C441.291 156.147 440.886 155.953 440.438 155.954C439.999 155.946 439.562 156.145 439.125 156.55L435.323 160.078C435.23 160.164 435.116 160.209 434.982 160.213C434.856 160.209 434.746 160.155 434.652 160.053L433.036 158.312Z" fill="black" fill-opacity="0.9"/>
<path d="M455.958 179.579C455.879 179.464 455.852 179.345 455.875 179.222C455.899 179.099 455.968 178.998 456.083 178.919L457.559 177.913C457.674 177.835 457.793 177.807 457.916 177.83C458.039 177.854 458.14 177.923 458.219 178.038L461.569 182.952C461.647 183.067 461.675 183.186 461.651 183.309C461.635 183.443 461.57 183.549 461.454 183.627L459.979 184.634C459.864 184.712 459.741 184.734 459.611 184.701C459.487 184.677 459.387 184.608 459.308 184.493L455.958 179.579Z" fill="black" fill-opacity="0.9"/>
<path d="M467.639 208.62C466.853 206.988 466.631 205.52 466.973 204.217C467.332 202.919 468.251 201.879 469.73 201.096C470.033 200.936 470.532 200.689 471.229 200.354C471.936 200.013 472.452 199.771 472.777 199.629C474.289 198.971 475.669 198.918 476.918 199.469C478.179 200.015 479.194 201.087 479.964 202.684C480.447 203.689 480.71 204.673 480.753 205.636C480.807 206.595 480.63 207.453 480.222 208.212C479.831 208.977 479.221 209.565 478.394 209.978L478.36 209.994C478.268 210.038 478.169 210.037 478.062 209.99C477.972 209.949 477.905 209.883 477.861 209.791L476.748 207.48C476.677 207.332 476.651 207.204 476.669 207.097C476.699 206.984 476.786 206.858 476.93 206.718C477.435 206.278 477.719 205.832 477.782 205.38C477.857 204.922 477.76 204.414 477.491 203.854C476.842 202.508 475.754 202.174 474.225 202.854C473.912 202.991 473.435 203.213 472.796 203.521C472.157 203.829 471.675 204.068 471.349 204.239C469.865 205.01 469.447 206.069 470.095 207.416C470.365 207.975 470.704 208.374 471.114 208.612C471.536 208.845 472.059 208.895 472.684 208.763C472.877 208.726 473.022 208.734 473.117 208.786C473.224 208.833 473.316 208.936 473.393 209.096L474.506 211.407C474.556 211.51 474.563 211.612 474.527 211.713C474.497 211.826 474.428 211.902 474.32 211.94C473.481 212.33 472.635 212.442 471.782 212.276C470.946 212.116 470.165 211.72 469.438 211.086C468.722 210.446 468.122 209.624 467.639 208.62Z" fill="black" fill-opacity="0.9"/>
<path d="M473.394 221.821C472.82 220.359 472.726 219.096 473.112 218.033C473.497 216.97 474.307 216.156 475.541 215.59C475.69 215.518 475.953 215.408 476.33 215.26C476.707 215.112 476.975 215.013 477.133 214.965C478.41 214.545 479.557 214.606 480.572 215.146C481.598 215.682 482.389 216.658 482.945 218.072C483.505 219.499 483.591 220.758 483.202 221.849C482.826 222.936 482.027 223.76 480.805 224.321C480.656 224.393 480.393 224.503 480.016 224.651C479.638 224.799 479.371 224.898 479.213 224.946C477.924 225.37 476.776 225.324 475.77 224.807C474.765 224.29 473.972 223.295 473.394 221.821ZM475.552 220.974C475.755 221.493 476.059 221.816 476.463 221.943C476.878 222.066 477.417 222.018 478.08 221.798C478.202 221.764 478.44 221.677 478.794 221.538C479.148 221.4 479.381 221.301 479.495 221.243C480.117 220.958 480.537 220.623 480.754 220.239C480.975 219.866 480.986 219.426 480.787 218.919C480.403 217.941 479.563 217.672 478.266 218.113L477.552 218.373L476.851 218.668C476.212 218.946 475.782 219.271 475.56 219.644C475.356 220.024 475.353 220.467 475.552 220.974Z" fill="black" fill-opacity="0.9"/>
<path d="M476.713 230.09C476.672 229.957 476.68 229.835 476.739 229.724C476.798 229.613 476.894 229.537 477.027 229.496L485.56 226.864C485.693 226.823 485.815 226.831 485.926 226.89C486.037 226.948 486.113 227.044 486.154 227.177L486.764 229.156C486.805 229.29 486.797 229.412 486.738 229.522C486.679 229.633 486.584 229.709 486.45 229.75L485.833 229.941C486.282 230.107 486.692 230.385 487.064 230.774C487.452 231.171 487.735 231.66 487.915 232.241C488.325 233.573 488.089 234.653 487.205 235.483C487.754 235.631 488.254 235.921 488.705 236.352C489.156 236.783 489.473 237.295 489.656 237.888C489.963 238.88 489.872 239.79 489.385 240.616C488.913 241.451 488.011 242.074 486.68 242.484L481.524 244.075C481.403 244.112 481.281 244.103 481.158 244.049C481.047 243.99 480.971 243.894 480.93 243.761L480.28 241.655C480.239 241.522 480.246 241.394 480.301 241.271C480.359 241.16 480.455 241.084 480.588 241.043L485.618 239.492C486.223 239.305 486.619 239.043 486.807 238.707C486.999 238.383 487.029 238.009 486.899 237.585C486.779 237.198 486.541 236.92 486.184 236.752C485.84 236.58 485.371 236.585 484.778 236.768L479.748 238.32C479.627 238.357 479.505 238.348 479.382 238.293C479.272 238.235 479.196 238.139 479.155 238.006L478.505 235.9C478.464 235.766 478.473 235.644 478.531 235.534C478.59 235.423 478.686 235.347 478.819 235.306L483.848 233.754C484.441 233.571 484.83 233.306 485.014 232.957C485.214 232.617 485.252 232.247 485.129 231.848C485.009 231.461 484.769 231.177 484.409 230.996C484.064 230.824 483.601 230.828 483.02 231.007L477.973 232.564C477.852 232.601 477.73 232.593 477.607 232.538C477.496 232.479 477.42 232.383 477.379 232.25L476.713 230.09Z" fill="black" fill-opacity="0.9"/>
<path d="M492.909 245.904C492.878 245.768 492.896 245.647 492.962 245.541C493.029 245.435 493.13 245.366 493.266 245.335L494.933 244.955C495.069 244.924 495.19 244.942 495.296 245.008C495.403 245.075 495.471 245.176 495.502 245.312L496.01 247.535C496.041 247.671 496.023 247.792 495.956 247.898C495.889 248.004 495.788 248.073 495.652 248.104L493.985 248.484C493.849 248.515 493.728 248.498 493.622 248.431C493.516 248.364 493.447 248.263 493.416 248.127L492.909 245.904ZM481.892 248.438C481.861 248.302 481.878 248.181 481.945 248.075C482.012 247.969 482.113 247.901 482.249 247.87L490.955 245.882C491.091 245.851 491.212 245.869 491.318 245.936C491.424 246.003 491.493 246.104 491.524 246.24L492.023 248.426C492.054 248.561 492.036 248.682 491.969 248.789C491.902 248.895 491.801 248.963 491.665 248.994L482.959 250.981C482.836 251.01 482.715 250.992 482.596 250.928C482.49 250.861 482.421 250.76 482.39 250.624L481.892 248.438Z" fill="black" fill-opacity="0.9"/>
<path d="M484.39 260.802C484.369 260.664 484.396 260.545 484.47 260.444C484.545 260.343 484.651 260.282 484.789 260.262L493.619 258.931C493.757 258.91 493.876 258.937 493.977 259.011C494.078 259.086 494.139 259.192 494.159 259.33L494.485 261.49C494.506 261.628 494.479 261.747 494.404 261.848C494.332 261.962 494.227 262.029 494.089 262.049L493.375 262.157C493.839 262.433 494.236 262.815 494.566 263.303C494.898 263.804 495.115 264.393 495.217 265.069C495.383 266.171 495.142 267.123 494.494 267.926C493.859 268.726 492.871 269.227 491.531 269.429L486.289 270.219C486.164 270.238 486.045 270.211 485.931 270.139C485.831 270.064 485.77 269.958 485.749 269.82L485.392 267.453C485.373 267.328 485.4 267.208 485.473 267.095C485.56 266.992 485.666 266.931 485.791 266.912L490.92 266.139C491.509 266.051 491.938 265.839 492.208 265.503C492.49 265.166 492.59 264.728 492.509 264.19C492.43 263.664 492.205 263.275 491.834 263.023C491.475 262.77 491.002 262.688 490.413 262.776L485.284 263.549C485.159 263.568 485.04 263.542 484.926 263.469C484.825 263.394 484.764 263.288 484.744 263.151L484.39 260.802Z" fill="black" fill-opacity="0.9"/>
<path d="M482.409 279.979C482.319 278.779 482.442 277.792 482.777 277.017C483.113 276.243 483.521 275.672 484.002 275.306C484.484 274.952 484.895 274.763 485.236 274.737C485.35 274.728 485.454 274.771 485.55 274.866C485.646 274.96 485.699 275.071 485.709 275.197L485.889 277.603C485.898 277.73 485.88 277.826 485.834 277.893C485.777 277.974 485.681 278.051 485.547 278.124C485.266 278.272 485.051 278.46 484.903 278.687C484.742 278.915 484.679 279.256 484.713 279.711C484.757 280.292 484.934 280.711 485.246 280.967C485.544 281.224 486.028 281.327 486.698 281.277L487.967 281.182C487.212 280.591 486.789 279.695 486.699 278.495C486.603 277.219 486.903 276.213 487.597 275.475C488.304 274.748 489.37 274.3 490.792 274.13L491.302 274.073C492.831 273.958 494.056 274.209 494.979 274.826C495.914 275.442 496.432 276.419 496.532 277.758C496.581 278.402 496.497 278.98 496.281 279.492C496.078 280.002 495.781 280.444 495.39 280.816L496.091 280.764C496.23 280.753 496.347 280.789 496.442 280.871C496.538 280.965 496.59 281.076 496.6 281.202L496.763 283.381C496.774 283.52 496.732 283.637 496.637 283.733C496.556 283.841 496.453 283.899 496.326 283.909L487.213 284.592C485.773 284.7 484.642 284.353 483.82 283.55C482.997 282.748 482.527 281.558 482.409 279.979ZM489.239 279.334C489.281 279.902 489.483 280.313 489.845 280.565C490.22 280.816 490.674 280.941 491.207 280.939C491.296 280.945 491.493 280.937 491.796 280.914C492.086 280.892 492.275 280.872 492.363 280.853C492.891 280.787 493.315 280.597 493.635 280.281C493.968 279.976 494.113 279.54 494.07 278.972C494.026 278.378 493.817 277.962 493.443 277.723C493.069 277.484 492.572 277.375 491.951 277.397L491.533 277.409C490.788 277.465 490.204 277.636 489.781 277.921C489.37 278.206 489.189 278.677 489.239 279.334Z" fill="black" fill-opacity="0.9"/>
<path d="M486.284 307.304C486.373 306.104 486.627 305.088 487.046 304.256C487.464 303.423 487.973 302.807 488.575 302.408C489.188 302.022 489.837 301.842 490.521 301.868C490.622 301.875 490.707 301.92 490.777 302.001C490.859 302.096 490.896 302.201 490.887 302.314L490.708 304.702C490.697 304.853 490.656 304.971 490.587 305.054C490.529 305.152 490.439 305.247 490.318 305.339C489.977 305.479 489.686 305.724 489.443 306.074C489.201 306.424 489.057 306.902 489.012 307.509C488.958 308.229 489.03 308.787 489.229 309.183C489.428 309.579 489.724 309.791 490.115 309.821C490.393 309.841 490.628 309.757 490.82 309.569C491.011 309.392 491.192 309.101 491.362 308.695C491.532 308.288 491.736 307.681 491.975 306.873C492.404 305.381 492.95 304.279 493.613 303.566C494.288 302.868 495.194 302.561 496.331 302.646C497.101 302.704 497.774 302.97 498.348 303.445C498.922 303.92 499.35 304.568 499.631 305.389C499.912 306.211 500.013 307.152 499.934 308.213C499.851 309.312 499.591 310.251 499.151 311.031C498.711 311.811 498.186 312.388 497.573 312.761C496.973 313.148 496.394 313.333 495.836 313.317C495.722 313.308 495.63 313.263 495.56 313.182C495.49 313.1 495.459 313.003 495.468 312.889L495.655 310.388C495.667 310.237 495.701 310.112 495.759 310.015C495.817 309.93 495.905 309.854 496.024 309.787C496.32 309.733 496.582 309.543 496.81 309.217C497.037 308.904 497.169 308.501 497.205 308.008C497.248 307.44 497.18 306.997 497 306.678C496.821 306.36 496.535 306.186 496.144 306.157C495.879 306.137 495.651 306.202 495.462 306.353C495.272 306.517 495.087 306.783 494.907 307.15C494.739 307.531 494.552 308.076 494.346 308.785C494.044 309.943 493.702 310.858 493.322 311.528C492.953 312.212 492.497 312.698 491.955 312.988C491.425 313.278 490.775 313.395 490.004 313.337C489.158 313.274 488.437 312.972 487.843 312.432C487.26 311.906 486.83 311.194 486.555 310.297C486.291 309.413 486.2 308.416 486.284 307.304Z" fill="black" fill-opacity="0.9"/>
<path d="M484.658 321.737C484.892 320.184 485.442 319.043 486.308 318.315C487.173 317.588 488.282 317.287 489.633 317.414C489.798 317.426 490.081 317.462 490.481 317.523C490.882 317.583 491.163 317.632 491.324 317.669C492.64 317.944 493.603 318.57 494.212 319.545C494.833 320.523 495.03 321.763 494.804 323.266C494.575 324.782 494.02 325.915 493.138 326.666C492.269 327.419 491.165 327.733 489.826 327.608C489.661 327.596 489.379 327.559 488.978 327.499C488.577 327.439 488.296 327.39 488.135 327.353C486.806 327.076 485.836 326.462 485.223 325.511C484.611 324.561 484.422 323.302 484.658 321.737ZM486.95 322.082C486.867 322.633 486.969 323.065 487.255 323.377C487.553 323.691 488.044 323.919 488.727 324.06C488.851 324.092 489.1 324.136 489.476 324.192C489.852 324.249 490.103 324.28 490.231 324.287C490.913 324.351 491.443 324.271 491.823 324.046C492.201 323.834 492.43 323.459 492.512 322.92C492.668 321.881 492.075 321.228 490.732 320.961L489.983 320.829L489.229 320.735C488.536 320.656 488.001 320.723 487.623 320.935C487.256 321.161 487.032 321.544 486.95 322.082Z" fill="black" fill-opacity="0.9"/>
<path d="M481.958 336.01C482.308 334.479 482.941 333.382 483.859 332.721C484.776 332.06 485.904 331.843 487.242 332.071C487.406 332.095 487.685 332.152 488.08 332.243C488.475 332.333 488.752 332.402 488.91 332.451C490.202 332.824 491.115 333.52 491.649 334.538C492.195 335.559 492.299 336.811 491.961 338.293C491.62 339.787 490.982 340.876 490.046 341.559C489.123 342.244 487.999 342.475 486.673 342.25C486.51 342.226 486.23 342.169 485.835 342.079C485.44 341.988 485.164 341.919 485.006 341.87C483.701 341.494 482.779 340.809 482.24 339.816C481.7 338.822 481.606 337.553 481.958 336.01ZM484.218 336.526C484.094 337.069 484.163 337.507 484.425 337.84C484.699 338.175 485.172 338.439 485.843 338.631C485.963 338.671 486.209 338.734 486.579 338.818C486.95 338.903 487.198 338.953 487.324 338.969C488 339.084 488.535 339.044 488.931 338.848C489.323 338.665 489.58 338.308 489.701 337.777C489.935 336.752 489.392 336.057 488.073 335.69L487.336 335.503L486.591 335.352C485.906 335.222 485.367 335.248 484.975 335.431C484.592 335.63 484.34 335.995 484.218 336.526Z" fill="black" fill-opacity="0.9"/>
<path d="M479.278 347.194C479.319 347.06 479.395 346.965 479.505 346.906C479.616 346.847 479.738 346.839 479.871 346.88L488.405 349.512C488.538 349.553 488.634 349.629 488.692 349.74C488.751 349.851 488.76 349.973 488.719 350.106L488.075 352.194C488.034 352.327 487.958 352.423 487.847 352.481C487.732 352.552 487.608 352.567 487.475 352.526L486.785 352.313C487.084 352.763 487.276 353.279 487.361 353.862C487.443 354.458 487.382 355.082 487.181 355.736C486.852 356.801 486.222 357.554 485.291 357.996C484.371 358.441 483.264 358.464 481.969 358.065L476.903 356.502C476.782 356.465 476.686 356.389 476.616 356.274C476.557 356.164 476.548 356.042 476.589 355.908L477.295 353.621C477.332 353.5 477.408 353.404 477.523 353.333C477.646 353.278 477.768 353.27 477.889 353.307L482.846 354.836C483.414 355.011 483.893 355.006 484.282 354.821C484.682 354.64 484.963 354.289 485.123 353.769C485.28 353.26 485.246 352.812 485.021 352.425C484.808 352.041 484.417 351.761 483.848 351.586L478.891 350.057C478.77 350.02 478.675 349.944 478.604 349.829C478.545 349.718 478.536 349.596 478.578 349.463L479.278 347.194Z" fill="black" fill-opacity="0.9"/>
<path d="M472.32 377.678C472.38 377.552 472.47 377.469 472.588 377.427C472.707 377.386 472.829 377.396 472.954 377.456L474.563 378.231C474.689 378.291 474.772 378.381 474.814 378.499C474.855 378.618 474.846 378.739 474.785 378.865L472.205 384.223C472.144 384.349 472.055 384.432 471.937 384.474C471.813 384.526 471.688 384.523 471.562 384.462L469.953 383.687C469.828 383.627 469.747 383.532 469.711 383.402C469.67 383.283 469.679 383.162 469.74 383.036L472.32 377.678Z" fill="black" fill-opacity="0.9"/>
<path d="M453.01 402.314C454.031 400.817 455.191 399.891 456.491 399.536C457.794 399.198 459.155 399.474 460.572 400.363C460.862 400.546 461.326 400.854 461.964 401.29C462.613 401.732 463.08 402.058 463.366 402.269C464.691 403.249 465.427 404.417 465.575 405.775C465.733 407.14 465.312 408.555 464.313 410.02C463.685 410.941 462.965 411.661 462.151 412.179C461.348 412.705 460.516 412.981 459.655 413.007C458.797 413.051 457.983 412.818 457.212 412.307L457.18 412.286C457.097 412.229 457.048 412.142 457.036 412.026C457.026 411.928 457.05 411.836 457.107 411.753L458.552 409.633C458.645 409.497 458.742 409.411 458.844 409.373C458.957 409.342 459.11 409.355 459.303 409.409C459.936 409.627 460.465 409.65 460.888 409.478C461.322 409.314 461.714 408.976 462.063 408.463C462.905 407.228 462.65 406.119 461.297 405.135C461.021 404.932 460.591 404.631 460.005 404.231C459.419 403.831 458.97 403.533 458.66 403.337C457.25 402.437 456.124 402.604 455.282 403.839C454.932 404.352 454.756 404.846 454.755 405.32C454.764 405.801 454.982 406.28 455.409 406.755C455.538 406.904 455.603 407.033 455.606 407.142C455.618 407.258 455.575 407.389 455.475 407.536L454.03 409.655C453.966 409.749 453.881 409.806 453.775 409.826C453.663 409.857 453.563 409.834 453.476 409.76C452.719 409.228 452.199 408.552 451.916 407.73C451.636 406.927 451.589 406.051 451.774 405.105C451.97 404.165 452.382 403.235 453.01 402.314Z" fill="black" fill-opacity="0.9"/>
<path d="M444.456 413.899C445.435 412.671 446.482 411.958 447.595 411.76C448.708 411.563 449.819 411.857 450.926 412.642C451.062 412.735 451.289 412.908 451.606 413.161C451.923 413.413 452.142 413.596 452.263 413.708C453.265 414.605 453.786 415.628 453.825 416.777C453.874 417.934 453.425 419.107 452.477 420.296C451.522 421.494 450.475 422.198 449.335 422.407C448.206 422.625 447.093 422.344 445.996 421.567C445.859 421.474 445.632 421.301 445.316 421.048C444.999 420.796 444.78 420.613 444.659 420.501C443.647 419.596 443.113 418.579 443.058 417.45C443.003 416.32 443.469 415.136 444.456 413.899ZM446.268 415.344C445.921 415.78 445.793 416.204 445.884 416.617C445.986 417.039 446.297 417.481 446.818 417.945C446.909 418.034 447.103 418.197 447.401 418.434C447.698 418.671 447.9 418.824 448.007 418.893C448.565 419.29 449.065 419.486 449.506 419.481C449.939 419.486 450.326 419.276 450.665 418.85C451.321 418.028 451.133 417.166 450.103 416.264L449.521 415.775L448.915 415.316C448.354 414.901 447.858 414.692 447.424 414.686C446.993 414.699 446.608 414.918 446.268 415.344Z" fill="black" fill-opacity="0.9"/>
<path d="M438.954 420.907C439.049 420.805 439.159 420.752 439.284 420.747C439.41 420.742 439.523 420.787 439.625 420.882L446.172 426.956C446.274 427.051 446.327 427.161 446.332 427.286C446.336 427.411 446.291 427.525 446.197 427.627L444.788 429.145C444.693 429.247 444.583 429.301 444.458 429.306C444.333 429.31 444.219 429.265 444.117 429.17L443.643 428.731C443.724 429.203 443.688 429.697 443.537 430.214C443.387 430.748 443.105 431.238 442.692 431.684C441.744 432.705 440.69 433.041 439.529 432.69C439.676 433.24 439.675 433.818 439.527 434.424C439.379 435.03 439.095 435.561 438.672 436.016C437.966 436.777 437.133 437.153 436.174 437.144C435.215 437.153 434.225 436.684 433.204 435.736L429.248 432.066C429.155 431.98 429.102 431.87 429.088 431.736C429.083 431.611 429.128 431.497 429.223 431.395L430.722 429.779C430.817 429.677 430.931 429.619 431.065 429.605C431.19 429.6 431.304 429.645 431.406 429.74L435.264 433.32C435.729 433.751 436.153 433.963 436.538 433.958C436.915 433.962 437.254 433.801 437.556 433.476C437.831 433.179 437.953 432.834 437.92 432.441C437.897 432.056 437.658 431.653 437.203 431.231L433.345 427.651C433.252 427.565 433.198 427.455 433.184 427.321C433.18 427.196 433.225 427.082 433.32 426.98L434.819 425.364C434.913 425.262 435.023 425.208 435.149 425.204C435.274 425.199 435.388 425.244 435.49 425.339L439.348 428.919C439.803 429.341 440.227 429.545 440.621 429.53C441.016 429.533 441.355 429.381 441.639 429.075C441.915 428.778 442.041 428.428 442.017 428.026C441.994 427.641 441.759 427.242 441.313 426.828L437.441 423.236C437.349 423.15 437.295 423.04 437.281 422.906C437.276 422.78 437.321 422.667 437.416 422.564L438.954 420.907Z" fill="black" fill-opacity="0.9"/>
<path d="M433.356 442.841C433.459 442.746 433.572 442.701 433.698 442.706C433.823 442.71 433.933 442.764 434.028 442.866L435.191 444.119C435.286 444.221 435.331 444.335 435.326 444.46C435.321 444.586 435.268 444.696 435.166 444.791L433.494 446.341C433.392 446.436 433.279 446.481 433.153 446.476C433.028 446.472 432.918 446.418 432.823 446.316L431.66 445.063C431.565 444.961 431.52 444.847 431.525 444.722C431.53 444.596 431.583 444.486 431.685 444.391L433.356 442.841ZM425.653 434.566C425.755 434.472 425.869 434.427 425.994 434.431C426.12 434.436 426.23 434.489 426.324 434.592L432.398 441.138C432.493 441.24 432.538 441.354 432.534 441.479C432.529 441.604 432.475 441.714 432.373 441.809L430.73 443.334C430.628 443.429 430.514 443.474 430.389 443.469C430.263 443.464 430.153 443.411 430.059 443.309L423.985 436.763C423.898 436.67 423.853 436.556 423.849 436.421C423.854 436.296 423.908 436.186 424.01 436.091L425.653 434.566Z" fill="black" fill-opacity="0.9"/>
<path d="M416.195 442.912C416.304 442.825 416.42 442.788 416.545 442.802C416.67 442.816 416.775 442.878 416.862 442.987L422.43 449.969C422.517 450.078 422.553 450.194 422.539 450.319C422.525 450.444 422.464 450.549 422.355 450.636L420.646 451.998C420.538 452.085 420.421 452.122 420.296 452.108C420.162 452.102 420.051 452.044 419.964 451.935L419.514 451.371C419.507 451.911 419.375 452.446 419.117 452.975C418.849 453.513 418.448 453.995 417.913 454.422C417.041 455.117 416.096 455.384 415.078 455.224C414.067 455.074 413.139 454.47 412.294 453.41L408.989 449.265C408.91 449.166 408.874 449.05 408.88 448.915C408.894 448.791 408.955 448.685 409.064 448.598L410.936 447.105C411.035 447.026 411.152 446.99 411.286 446.996C411.419 447.02 411.525 447.081 411.604 447.18L414.838 451.236C415.209 451.701 415.607 451.967 416.032 452.033C416.465 452.109 416.895 451.977 417.321 451.637C417.737 451.306 417.961 450.916 417.993 450.469C418.033 450.032 417.868 449.581 417.497 449.115L414.263 445.06C414.184 444.961 414.147 444.844 414.153 444.71C414.167 444.585 414.229 444.479 414.338 444.392L416.195 442.912Z" fill="black" fill-opacity="0.9"/>
<path d="M398.597 450.785C399.591 450.107 400.507 449.72 401.346 449.623C402.185 449.527 402.883 449.595 403.44 449.828C403.987 450.068 404.357 450.33 404.55 450.612C404.614 450.706 404.629 450.819 404.596 450.949C404.562 451.079 404.493 451.18 404.388 451.251L402.394 452.611C402.29 452.682 402.197 452.715 402.116 452.709C402.018 452.699 401.903 452.655 401.772 452.575C401.503 452.406 401.234 452.314 400.963 452.299C400.685 452.274 400.358 452.39 399.981 452.646C399.5 452.975 399.226 453.338 399.16 453.735C399.086 454.123 399.239 454.593 399.617 455.148L400.334 456.2C400.468 455.25 401.033 454.436 402.027 453.758C403.084 453.038 404.105 452.793 405.092 453.025C406.074 453.275 406.995 453.974 407.854 455.12L408.158 455.534C409.022 456.8 409.417 457.987 409.344 459.094C409.279 460.212 408.691 461.149 407.582 461.906C407.048 462.27 406.506 462.486 405.955 462.555C405.411 462.634 404.88 462.598 404.362 462.445L404.758 463.026C404.837 463.141 404.864 463.26 404.841 463.383C404.807 463.514 404.738 463.615 404.633 463.686L402.828 464.917C402.713 464.995 402.59 465.018 402.46 464.984C402.326 464.968 402.223 464.907 402.152 464.803L397.004 457.252C396.191 456.059 395.926 454.905 396.209 453.792C396.493 452.679 397.289 451.677 398.597 450.785ZM402.57 456.377C402.099 456.698 401.845 457.078 401.808 457.518C401.777 457.968 401.896 458.423 402.164 458.884C402.204 458.965 402.309 459.131 402.48 459.382C402.645 459.622 402.757 459.776 402.817 459.842C403.138 460.267 403.515 460.539 403.948 460.658C404.378 460.794 404.829 460.701 405.3 460.38C405.792 460.045 406.048 459.656 406.068 459.213C406.088 458.77 405.933 458.285 405.604 457.758L405.385 457.402C404.964 456.784 404.524 456.364 404.065 456.14C403.613 455.927 403.115 456.006 402.57 456.377Z" fill="black" fill-opacity="0.9"/>
<path d="M376.87 467.803C377.954 467.281 378.961 466.993 379.891 466.939C380.821 466.884 381.609 467.018 382.256 467.339C382.897 467.677 383.377 468.149 383.697 468.754C383.741 468.846 383.745 468.942 383.709 469.043C383.668 469.162 383.596 469.246 383.493 469.295L381.336 470.334C381.199 470.4 381.077 470.423 380.97 470.405C380.856 470.403 380.729 470.373 380.589 470.314C380.297 470.089 379.94 469.959 379.515 469.924C379.091 469.89 378.605 470.004 378.057 470.268C377.406 470.581 376.959 470.923 376.716 471.293C376.473 471.664 376.436 472.026 376.606 472.38C376.727 472.631 376.918 472.792 377.177 472.864C377.425 472.941 377.768 472.952 378.205 472.896C378.642 472.84 379.27 472.714 380.089 472.516C381.595 472.142 382.823 472.064 383.772 472.282C384.714 472.517 385.433 473.148 385.928 474.175C386.263 474.871 386.368 475.587 386.244 476.321C386.12 477.056 385.772 477.75 385.202 478.405C384.631 479.059 383.867 479.617 382.908 480.079C381.915 480.557 380.971 480.801 380.076 480.81C379.181 480.82 378.418 480.652 377.789 480.309C377.154 479.982 376.704 479.573 376.439 479.082C376.389 478.979 376.382 478.877 376.418 478.776C376.453 478.674 376.523 478.599 376.625 478.549L378.885 477.461C379.022 477.395 379.147 477.363 379.26 477.365C379.362 477.372 379.472 477.41 379.59 477.48C379.785 477.71 380.08 477.842 380.476 477.876C380.861 477.915 381.276 477.828 381.721 477.614C382.235 477.367 382.584 477.086 382.77 476.771C382.956 476.457 382.964 476.122 382.794 475.769C382.678 475.529 382.508 475.365 382.283 475.277C382.046 475.194 381.723 475.166 381.315 475.194C380.901 475.239 380.335 475.35 379.619 475.526C378.464 475.843 377.502 476.005 376.731 476.01C375.954 476.033 375.305 475.881 374.783 475.556C374.267 475.243 373.841 474.738 373.505 474.042C373.137 473.277 373.038 472.502 373.209 471.717C373.373 470.949 373.775 470.222 374.414 469.534C375.047 468.864 375.866 468.287 376.87 467.803Z" fill="black" fill-opacity="0.9"/>
<path d="M363.558 473.612C365.02 473.038 366.283 472.944 367.346 473.329C368.409 473.715 369.223 474.525 369.789 475.759C369.861 475.907 369.971 476.17 370.119 476.548C370.267 476.925 370.366 477.193 370.414 477.35C370.834 478.628 370.773 479.774 370.233 480.789C369.697 481.816 368.721 482.607 367.307 483.163C365.88 483.722 364.621 483.808 363.53 483.42C362.443 483.044 361.619 482.245 361.058 481.023C360.986 480.874 360.876 480.611 360.728 480.234C360.58 479.856 360.481 479.589 360.433 479.431C360.009 478.141 360.055 476.994 360.572 475.988C361.089 474.982 362.084 474.19 363.558 473.612ZM364.405 475.77C363.886 475.973 363.563 476.277 363.436 476.681C363.313 477.096 363.361 477.635 363.581 478.297C363.615 478.42 363.702 478.658 363.841 479.012C363.979 479.366 364.078 479.599 364.136 479.712C364.421 480.335 364.756 480.755 365.14 480.971C365.513 481.193 365.953 481.204 366.46 481.005C367.438 480.621 367.707 479.78 367.266 478.484L367.006 477.769L366.711 477.069C366.433 476.43 366.108 475.999 365.735 475.778C365.355 475.573 364.912 475.571 364.405 475.77Z" fill="black" fill-opacity="0.9"/>
<path d="M349.848 478.41C351.349 477.947 352.615 477.948 353.646 478.412C354.677 478.876 355.429 479.744 355.901 481.017C355.962 481.171 356.052 481.441 356.171 481.828C356.291 482.216 356.369 482.49 356.405 482.651C356.728 483.956 356.582 485.095 355.967 486.067C355.356 487.051 354.324 487.767 352.872 488.215C351.407 488.666 350.146 488.658 349.086 488.189C348.031 487.733 347.269 486.874 346.801 485.614C346.74 485.46 346.65 485.19 346.53 484.802C346.411 484.415 346.333 484.141 346.297 483.98C345.97 482.662 346.102 481.521 346.692 480.557C347.283 479.593 348.335 478.877 349.848 478.41ZM350.531 480.625C349.998 480.79 349.654 481.068 349.496 481.461C349.343 481.867 349.351 482.408 349.52 483.085C349.545 483.209 349.614 483.453 349.726 483.817C349.838 484.18 349.919 484.42 349.968 484.537C350.206 485.18 350.508 485.623 350.876 485.868C351.231 486.116 351.668 486.16 352.189 486C353.193 485.69 353.524 484.872 353.182 483.546L352.976 482.814L352.734 482.093C352.504 481.435 352.212 480.982 351.857 480.733C351.493 480.501 351.051 480.465 350.531 480.625Z" fill="black" fill-opacity="0.9"/>
<path d="M338.822 481.68C338.957 481.649 339.078 481.667 339.185 481.734C339.291 481.8 339.359 481.901 339.39 482.037L341.378 490.743C341.409 490.879 341.391 491 341.324 491.106C341.257 491.213 341.156 491.281 341.02 491.312L338.89 491.798C338.754 491.829 338.633 491.812 338.527 491.745C338.408 491.681 338.334 491.581 338.303 491.445L338.142 490.741C337.902 491.225 337.55 491.649 337.088 492.015C336.613 492.383 336.042 492.643 335.376 492.795C334.289 493.043 333.321 492.875 332.473 492.289C331.628 491.715 331.054 490.768 330.752 489.446L329.573 484.278C329.545 484.155 329.563 484.034 329.626 483.915C329.693 483.809 329.794 483.74 329.93 483.709L332.264 483.177C332.388 483.148 332.509 483.166 332.627 483.23C332.736 483.309 332.805 483.411 332.833 483.534L333.987 488.591C334.12 489.171 334.363 489.584 334.718 489.827C335.075 490.084 335.519 490.151 336.05 490.03C336.569 489.912 336.94 489.658 337.163 489.269C337.389 488.893 337.435 488.415 337.303 487.834L336.149 482.777C336.121 482.654 336.138 482.533 336.202 482.414C336.269 482.308 336.37 482.239 336.506 482.208L338.822 481.68Z" fill="black" fill-opacity="0.9"/>
<path d="M308.943 490.897C309.082 490.887 309.199 490.922 309.294 491.004C309.389 491.086 309.441 491.196 309.452 491.335L309.585 493.116C309.596 493.255 309.56 493.372 309.478 493.467C309.396 493.562 309.286 493.615 309.147 493.625L303.217 494.07C303.078 494.08 302.961 494.045 302.866 493.963C302.758 493.882 302.699 493.772 302.689 493.633L302.555 491.852C302.545 491.713 302.587 491.596 302.681 491.5C302.763 491.405 302.873 491.352 303.012 491.342L308.943 490.897Z" fill="black" fill-opacity="0.9"/>
<path d="M277.952 486.492C279.759 486.628 281.141 487.169 282.099 488.118C283.043 489.078 283.484 490.394 283.422 492.066C283.409 492.408 283.374 492.964 283.316 493.734C283.258 494.517 283.209 495.085 283.17 495.438C282.983 497.075 282.339 498.297 281.237 499.104C280.134 499.923 278.699 500.267 276.93 500.134C275.819 500.051 274.835 499.786 273.979 499.341C273.122 498.909 272.467 498.326 272.014 497.594C271.547 496.873 271.342 496.051 271.399 495.128L271.402 495.09C271.409 494.989 271.46 494.904 271.554 494.834C271.635 494.777 271.725 494.752 271.827 494.76L274.384 494.951C274.549 494.964 274.672 495.005 274.756 495.074C274.839 495.157 274.905 495.295 274.954 495.489C275.082 496.147 275.327 496.616 275.687 496.897C276.046 497.191 276.535 497.361 277.154 497.407C278.644 497.519 279.477 496.743 279.653 495.079C279.691 494.739 279.736 494.215 279.789 493.508C279.842 492.801 279.876 492.263 279.891 491.896C279.965 490.225 279.257 489.334 277.767 489.222C277.148 489.176 276.633 489.27 276.221 489.506C275.809 489.755 275.504 490.183 275.306 490.79C275.241 490.976 275.162 491.097 275.069 491.154C274.975 491.223 274.839 491.251 274.663 491.238L272.105 491.046C271.991 491.037 271.899 490.992 271.829 490.911C271.746 490.829 271.716 490.731 271.737 490.618C271.818 489.697 272.144 488.909 272.714 488.253C273.271 487.608 274.005 487.13 274.918 486.817C275.829 486.517 276.841 486.409 277.952 486.492Z" fill="black" fill-opacity="0.9"/>
<path d="M263.643 484.876C265.196 485.11 266.336 485.66 267.064 486.525C267.792 487.391 268.092 488.499 267.966 489.851C267.954 490.016 267.917 490.298 267.857 490.699C267.796 491.1 267.748 491.381 267.711 491.542C267.435 492.858 266.81 493.821 265.834 494.429C264.857 495.051 263.617 495.248 262.114 495.021C260.598 494.793 259.465 494.238 258.714 493.356C257.961 492.487 257.647 491.383 257.772 490.044C257.784 489.879 257.82 489.596 257.881 489.196C257.941 488.795 257.99 488.514 258.027 488.353C258.304 487.024 258.918 486.053 259.868 485.441C260.819 484.828 262.077 484.64 263.643 484.876ZM263.297 487.168C262.746 487.085 262.315 487.187 262.002 487.473C261.688 487.771 261.461 488.262 261.319 488.945C261.288 489.069 261.244 489.318 261.187 489.694C261.131 490.07 261.099 490.321 261.093 490.448C261.028 491.13 261.108 491.661 261.333 492.041C261.545 492.419 261.92 492.648 262.459 492.729C263.499 492.886 264.152 492.293 264.418 490.95L264.55 490.201L264.645 489.446C264.724 488.754 264.657 488.219 264.445 487.841C264.218 487.474 263.836 487.249 263.297 487.168Z" fill="black" fill-opacity="0.9"/>
<path d="M254.822 483.616C254.958 483.647 255.059 483.716 255.126 483.822C255.192 483.928 255.21 484.049 255.179 484.185L253.192 492.891C253.161 493.027 253.093 493.128 252.986 493.195C252.88 493.262 252.759 493.279 252.623 493.248L250.604 492.788C250.468 492.757 250.367 492.688 250.3 492.582C250.234 492.476 250.216 492.355 250.247 492.219L250.391 491.589C250.022 491.895 249.576 492.111 249.054 492.239C248.516 492.376 247.95 492.377 247.357 492.241C245.999 491.931 245.182 491.186 244.905 490.006C244.502 490.407 244.001 490.696 243.402 490.871C242.804 491.046 242.202 491.065 241.597 490.926C240.584 490.695 239.842 490.162 239.37 489.327C238.883 488.501 238.794 487.409 239.104 486.051L240.305 480.79C240.333 480.666 240.402 480.565 240.511 480.486C240.617 480.419 240.738 480.401 240.874 480.432L243.022 480.923C243.158 480.954 243.266 481.024 243.345 481.133C243.411 481.239 243.429 481.36 243.398 481.496L242.227 486.627C242.086 487.244 242.114 487.719 242.312 488.049C242.497 488.378 242.805 488.591 243.238 488.69C243.633 488.78 243.992 488.712 244.317 488.488C244.638 488.275 244.868 487.866 245.006 487.261L246.177 482.13C246.205 482.007 246.274 481.905 246.383 481.826C246.489 481.76 246.61 481.742 246.746 481.773L248.894 482.263C249.03 482.294 249.131 482.363 249.198 482.469C249.265 482.575 249.283 482.696 249.252 482.832L248.081 487.963C247.943 488.568 247.978 489.038 248.188 489.371C248.382 489.714 248.683 489.933 249.091 490.026C249.486 490.116 249.852 490.05 250.189 489.828C250.51 489.615 250.738 489.213 250.873 488.62L252.049 483.47C252.077 483.347 252.146 483.246 252.255 483.167C252.361 483.1 252.482 483.082 252.618 483.113L254.822 483.616Z" fill="black" fill-opacity="0.9"/>
<path d="M233.028 489.735C233.161 489.776 233.257 489.852 233.316 489.963C233.374 490.073 233.383 490.195 233.342 490.329L232.838 491.963C232.797 492.096 232.721 492.192 232.61 492.25C232.499 492.309 232.377 492.318 232.244 492.276L230.065 491.604C229.932 491.563 229.836 491.487 229.778 491.377C229.719 491.266 229.71 491.144 229.752 491.011L230.256 489.377C230.297 489.243 230.373 489.147 230.483 489.089C230.594 489.03 230.716 489.022 230.85 489.063L233.028 489.735ZM236.342 478.926C236.475 478.967 236.571 479.043 236.63 479.154C236.688 479.265 236.697 479.387 236.656 479.52L234.024 488.053C233.983 488.187 233.907 488.282 233.796 488.341C233.685 488.4 233.563 488.408 233.43 488.367L231.288 487.707C231.155 487.665 231.059 487.589 231 487.479C230.941 487.368 230.933 487.246 230.974 487.113L233.606 478.579C233.643 478.458 233.719 478.362 233.834 478.292C233.945 478.233 234.067 478.224 234.2 478.265L236.342 478.926Z" fill="black" fill-opacity="0.9"/>
<path d="M224.386 474.908C224.515 474.959 224.605 475.042 224.655 475.157C224.706 475.272 224.705 475.394 224.654 475.524L221.392 483.837C221.341 483.966 221.258 484.056 221.143 484.106C221.028 484.156 220.906 484.156 220.776 484.105L218.742 483.307C218.612 483.256 218.522 483.173 218.472 483.058C218.41 482.939 218.405 482.814 218.456 482.684L218.72 482.012C218.248 482.276 217.719 482.429 217.131 482.471C216.532 482.507 215.914 482.401 215.277 482.151C214.239 481.744 213.535 481.059 213.164 480.097C212.789 479.147 212.849 478.041 213.344 476.779L215.28 471.845C215.327 471.727 215.41 471.637 215.529 471.575C215.644 471.525 215.766 471.525 215.896 471.576L218.125 472.451C218.242 472.497 218.332 472.58 218.394 472.7C218.44 472.826 218.439 472.949 218.393 473.067L216.498 477.895C216.281 478.449 216.25 478.927 216.405 479.328C216.556 479.741 216.885 480.047 217.392 480.246C217.887 480.44 218.336 480.44 218.74 480.244C219.138 480.061 219.447 479.692 219.664 479.137L221.559 474.309C221.605 474.191 221.688 474.101 221.808 474.039C221.923 473.989 222.045 473.99 222.175 474.04L224.386 474.908Z" fill="black" fill-opacity="0.9"/>
<path d="M208.769 463.604C209.853 464.127 210.646 464.727 211.149 465.405C211.652 466.083 211.942 466.721 212.019 467.321C212.084 467.915 212.043 468.366 211.895 468.674C211.845 468.777 211.756 468.846 211.626 468.882C211.496 468.918 211.374 468.908 211.26 468.853L209.086 467.806C208.972 467.751 208.897 467.687 208.862 467.614C208.821 467.524 208.802 467.403 208.806 467.25C208.818 466.932 208.763 466.652 208.64 466.411C208.523 466.157 208.259 465.932 207.848 465.734C207.323 465.481 206.872 465.426 206.495 465.567C206.123 465.697 205.791 466.065 205.5 466.67L204.948 467.817C205.837 467.458 206.824 467.54 207.908 468.062C209.061 468.617 209.783 469.379 210.075 470.349C210.351 471.325 210.206 472.472 209.642 473.789L209.437 474.259C208.772 475.64 207.941 476.576 206.946 477.067C205.945 477.569 204.84 477.529 203.63 476.946C203.048 476.666 202.589 476.304 202.254 475.862C201.913 475.431 201.68 474.953 201.553 474.428L201.248 475.061C201.188 475.186 201.098 475.27 200.98 475.311C200.85 475.347 200.728 475.338 200.614 475.283L198.645 474.335C198.52 474.274 198.439 474.179 198.403 474.049C198.35 473.926 198.351 473.807 198.406 473.692L202.372 465.459C202.998 464.158 203.864 463.351 204.97 463.04C206.076 462.729 207.342 462.917 208.769 463.604ZM205.912 469.842C205.399 469.595 204.942 469.565 204.543 469.752C204.138 469.95 203.803 470.281 203.538 470.744C203.488 470.818 203.397 470.992 203.265 471.266C203.139 471.529 203.062 471.703 203.035 471.788C202.827 472.278 202.78 472.741 202.894 473.175C202.991 473.616 203.297 473.96 203.81 474.207C204.347 474.465 204.812 474.492 205.205 474.288C205.599 474.084 205.941 473.708 206.234 473.16L206.432 472.791C206.756 472.118 206.9 471.527 206.865 471.017C206.823 470.52 206.506 470.128 205.912 469.842Z" fill="black" fill-opacity="0.9"/>
<path d="M183.167 453.297C184.161 453.975 184.914 454.703 185.426 455.482C185.938 456.26 186.216 457.009 186.261 457.73C186.289 458.454 186.121 459.106 185.756 459.685C185.699 459.769 185.618 459.821 185.512 459.841C185.389 459.864 185.28 459.844 185.186 459.779L183.208 458.431C183.082 458.345 183.001 458.251 182.963 458.149C182.908 458.05 182.871 457.925 182.851 457.774C182.901 457.409 182.834 457.034 182.652 456.649C182.47 456.264 182.128 455.9 181.625 455.558C181.029 455.151 180.509 454.935 180.067 454.909C179.625 454.884 179.293 455.033 179.072 455.358C178.915 455.588 178.87 455.833 178.937 456.094C178.994 456.347 179.156 456.65 179.423 457C179.69 457.351 180.114 457.831 180.694 458.441C181.772 459.559 182.453 460.584 182.739 461.514C183.006 462.448 182.819 463.386 182.177 464.328C181.742 464.966 181.175 465.415 180.477 465.675C179.778 465.935 179.003 465.981 178.151 465.814C177.299 465.647 176.434 465.264 175.555 464.665C174.644 464.044 173.961 463.348 173.505 462.577C173.049 461.807 172.813 461.063 172.796 460.346C172.761 459.633 172.89 459.038 173.183 458.564C173.248 458.469 173.332 458.412 173.438 458.392C173.544 458.372 173.644 458.395 173.738 458.459L175.81 459.872C175.936 459.957 176.026 460.049 176.081 460.148C176.126 460.24 176.147 460.355 176.146 460.492C176.045 460.775 176.078 461.097 176.247 461.457C176.405 461.81 176.688 462.126 177.096 462.404C177.567 462.725 177.985 462.887 178.35 462.891C178.716 462.895 179.009 462.735 179.23 462.41C179.38 462.191 179.437 461.961 179.401 461.722C179.354 461.475 179.216 461.182 178.988 460.843C178.742 460.506 178.364 460.072 177.853 459.54C177.001 458.698 176.38 457.945 175.99 457.281C175.582 456.619 175.388 455.981 175.409 455.367C175.422 454.763 175.646 454.141 176.082 453.503C176.56 452.802 177.181 452.329 177.946 452.084C178.693 451.842 179.525 451.826 180.439 452.036C181.337 452.249 182.246 452.669 183.167 453.297Z" fill="black" fill-opacity="0.9"/>
<path d="M171.481 444.674C172.709 445.653 173.421 446.699 173.619 447.813C173.817 448.926 173.523 450.036 172.737 451.143C172.644 451.28 172.471 451.507 172.219 451.824C171.966 452.14 171.783 452.359 171.671 452.48C170.774 453.483 169.751 454.003 168.602 454.043C167.445 454.092 166.272 453.643 165.084 452.695C163.885 451.74 163.181 450.692 162.972 449.553C162.755 448.424 163.035 447.311 163.813 446.214C163.905 446.077 164.078 445.85 164.331 445.533C164.583 445.216 164.766 444.997 164.879 444.877C165.783 443.864 166.8 443.331 167.93 443.275C169.059 443.22 170.243 443.686 171.481 444.674ZM170.035 446.486C169.6 446.138 169.175 446.01 168.762 446.102C168.341 446.204 167.898 446.515 167.434 447.036C167.345 447.127 167.182 447.321 166.945 447.618C166.708 447.915 166.555 448.117 166.486 448.224C166.089 448.783 165.893 449.282 165.898 449.724C165.893 450.157 166.103 450.543 166.529 450.883C167.351 451.538 168.213 451.351 169.116 450.321L169.604 449.739L170.063 449.133C170.478 448.572 170.688 448.075 170.693 447.642C170.68 447.211 170.461 446.825 170.035 446.486Z" fill="black" fill-opacity="0.9"/>
<path d="M160.469 435.199C161.621 436.267 162.253 437.364 162.367 438.489C162.481 439.614 162.105 440.699 161.239 441.745C161.136 441.874 160.947 442.087 160.671 442.384C160.395 442.681 160.197 442.886 160.076 442.998C159.107 443.931 158.048 444.374 156.899 444.327C155.741 444.29 154.605 443.754 153.491 442.72C152.367 441.678 151.744 440.581 151.62 439.429C151.488 438.287 151.85 437.198 152.708 436.162C152.81 436.032 153 435.819 153.275 435.522C153.551 435.225 153.749 435.02 153.871 434.908C154.848 433.966 155.902 433.51 157.033 433.539C158.163 433.569 159.309 434.122 160.469 435.199ZM158.893 436.898C158.484 436.519 158.07 436.36 157.651 436.42C157.224 436.49 156.759 436.767 156.257 437.252C156.162 437.337 155.985 437.518 155.727 437.796C155.468 438.075 155.3 438.265 155.224 438.367C154.786 438.894 154.553 439.378 154.525 439.818C154.487 440.249 154.668 440.65 155.067 441.021C155.838 441.736 156.712 441.614 157.689 440.654L158.22 440.11L158.723 439.54C159.178 439.012 159.424 438.532 159.462 438.1C159.482 437.669 159.292 437.269 158.893 436.898Z" fill="black" fill-opacity="0.9"/>
<path d="M152.125 427.285C152.22 427.387 152.265 427.501 152.26 427.626C152.255 427.751 152.202 427.861 152.1 427.956L145.554 434.03C145.451 434.125 145.338 434.17 145.212 434.165C145.087 434.161 144.977 434.107 144.882 434.005L143.396 432.403C143.301 432.301 143.256 432.187 143.261 432.062C143.257 431.928 143.306 431.813 143.408 431.718L143.938 431.227C143.399 431.261 142.855 431.169 142.308 430.951C141.752 430.724 141.241 430.36 140.776 429.858C140.017 429.041 139.68 428.119 139.763 427.091C139.837 426.072 140.371 425.102 141.364 424.18L145.25 420.574C145.343 420.488 145.457 420.443 145.592 420.439C145.717 420.444 145.827 420.497 145.922 420.599L147.55 422.354C147.636 422.447 147.681 422.561 147.685 422.696C147.671 422.829 147.618 422.939 147.525 423.026L143.723 426.554C143.286 426.959 143.051 427.376 143.017 427.805C142.974 428.242 143.137 428.661 143.508 429.06C143.87 429.45 144.275 429.644 144.723 429.643C145.162 429.65 145.599 429.452 146.036 429.047L149.838 425.519C149.931 425.433 150.045 425.388 150.179 425.384C150.305 425.388 150.415 425.442 150.509 425.544L152.125 427.285Z" fill="black" fill-opacity="0.9"/>
<path d="M129.203 406.017C129.282 406.133 129.309 406.252 129.286 406.375C129.263 406.498 129.193 406.599 129.078 406.677L127.603 407.684C127.487 407.762 127.368 407.79 127.245 407.766C127.122 407.743 127.021 407.674 126.943 407.559L123.593 402.645C123.514 402.53 123.486 402.411 123.51 402.288C123.526 402.154 123.592 402.048 123.707 401.969L125.182 400.963C125.297 400.885 125.42 400.862 125.551 400.896C125.674 400.919 125.775 400.989 125.853 401.104L129.203 406.017Z" fill="black" fill-opacity="0.9"/>
<path d="M117.523 376.977C118.309 378.609 118.53 380.077 118.188 381.38C117.829 382.678 116.91 383.718 115.431 384.501C115.128 384.66 114.629 384.908 113.933 385.243C113.225 385.584 112.709 385.826 112.384 385.968C110.873 386.625 109.493 386.679 108.243 386.127C106.982 385.582 105.967 384.51 105.198 382.913C104.714 381.908 104.451 380.924 104.409 379.96C104.355 379.002 104.532 378.144 104.94 377.385C105.331 376.62 105.94 376.032 106.767 375.619L106.802 375.603C106.893 375.559 106.992 375.56 107.099 375.607C107.189 375.648 107.256 375.714 107.3 375.805L108.413 378.116C108.484 378.265 108.511 378.393 108.492 378.5C108.462 378.613 108.375 378.739 108.232 378.879C107.727 379.319 107.442 379.765 107.379 380.217C107.304 380.675 107.402 381.183 107.671 381.743C108.319 383.089 109.408 383.423 110.936 382.743C111.25 382.606 111.726 382.383 112.365 382.076C113.004 381.768 113.487 381.529 113.812 381.358C115.297 380.587 115.714 379.528 115.066 378.181C114.797 377.622 114.457 377.223 114.047 376.985C113.626 376.752 113.102 376.702 112.477 376.834C112.284 376.871 112.14 376.863 112.044 376.811C111.937 376.764 111.845 376.66 111.768 376.501L110.655 374.19C110.606 374.087 110.599 373.985 110.634 373.883C110.664 373.771 110.733 373.695 110.842 373.657C111.68 373.267 112.526 373.155 113.379 373.321C114.215 373.481 114.997 373.877 115.724 374.511C116.439 375.151 117.039 375.973 117.523 376.977Z" fill="black" fill-opacity="0.9"/>
<path d="M111.767 363.776C112.341 365.238 112.435 366.501 112.05 367.564C111.664 368.627 110.854 369.441 109.62 370.007C109.472 370.079 109.209 370.189 108.832 370.337C108.454 370.485 108.187 370.584 108.029 370.632C106.751 371.052 105.605 370.991 104.59 370.451C103.563 369.915 102.772 368.939 102.217 367.524C101.657 366.098 101.571 364.839 101.959 363.748C102.335 362.661 103.135 361.837 104.357 361.276C104.505 361.204 104.768 361.094 105.146 360.946C105.523 360.798 105.791 360.699 105.948 360.651C107.238 360.227 108.385 360.273 109.391 360.79C110.397 361.307 111.189 362.302 111.767 363.776ZM109.61 364.623C109.406 364.104 109.102 363.781 108.699 363.654C108.283 363.531 107.744 363.579 107.082 363.798C106.959 363.833 106.721 363.92 106.367 364.058C106.014 364.197 105.78 364.296 105.667 364.354C105.044 364.639 104.624 364.974 104.408 365.358C104.187 365.731 104.175 366.171 104.374 366.678C104.759 367.656 105.599 367.925 106.895 367.484L107.61 367.224L108.31 366.929C108.95 366.651 109.38 366.326 109.601 365.953C109.806 365.573 109.809 365.13 109.61 364.623Z" fill="black" fill-opacity="0.9"/>
<path d="M108.448 355.507C108.489 355.64 108.481 355.762 108.422 355.873C108.363 355.984 108.268 356.06 108.134 356.101L99.6012 358.733C99.4681 358.774 99.3461 358.766 99.2352 358.707C99.1243 358.648 99.0484 358.553 99.0073 358.419L98.3969 356.44C98.3558 356.307 98.3646 356.185 98.4232 356.074C98.4817 355.964 98.5776 355.888 98.7108 355.847L99.3281 355.656C98.8791 355.49 98.4686 355.212 98.0968 354.823C97.7091 354.426 97.4257 353.936 97.2464 353.355C96.8358 352.024 97.0725 350.944 97.9566 350.114C97.407 349.966 96.9068 349.676 96.4557 349.245C96.0047 348.814 95.6877 348.302 95.5047 347.709C95.1986 346.716 95.2892 345.807 95.7766 344.981C96.2482 344.146 97.1497 343.523 98.4811 343.113L103.637 341.522C103.758 341.485 103.88 341.493 104.003 341.548C104.114 341.607 104.19 341.703 104.231 341.836L104.881 343.942C104.922 344.075 104.915 344.203 104.86 344.326C104.802 344.437 104.706 344.513 104.573 344.554L99.5435 346.105C98.9383 346.292 98.5417 346.554 98.3539 346.89C98.1622 347.214 98.1318 347.588 98.2624 348.012C98.3819 348.399 98.6201 348.677 98.9769 348.845C99.3215 349.017 99.7904 349.012 100.384 348.829L105.413 347.277C105.534 347.24 105.656 347.249 105.779 347.304C105.89 347.362 105.966 347.458 106.007 347.591L106.656 349.697C106.697 349.831 106.689 349.953 106.63 350.063C106.571 350.174 106.476 350.25 106.342 350.291L101.313 351.843C100.72 352.026 100.331 352.291 100.147 352.64C99.9473 352.98 99.909 353.349 100.032 353.749C100.152 354.136 100.392 354.42 100.752 354.6C101.097 354.773 101.56 354.769 102.141 354.59L107.188 353.033C107.309 352.995 107.431 353.004 107.554 353.059C107.665 353.118 107.741 353.214 107.782 353.347L108.448 355.507Z" fill="black" fill-opacity="0.9"/>
<path d="M92.2523 339.693C92.2833 339.828 92.2654 339.949 92.1987 340.056C92.132 340.162 92.0307 340.23 91.8949 340.261L90.2278 340.642C90.0919 340.673 89.9709 340.655 89.8647 340.588C89.7586 340.522 89.69 340.42 89.659 340.285L89.1516 338.062C89.1206 337.926 89.1385 337.805 89.2052 337.699C89.2719 337.592 89.3732 337.524 89.509 337.493L91.1761 337.112C91.312 337.081 91.433 337.099 91.5392 337.166C91.6453 337.233 91.7139 337.334 91.7449 337.47L92.2523 339.693ZM103.27 337.158C103.301 337.294 103.283 337.415 103.216 337.522C103.149 337.628 103.048 337.696 102.912 337.727L94.2061 339.714C94.0703 339.745 93.9493 339.728 93.8431 339.661C93.7369 339.594 93.6683 339.493 93.6373 339.357L93.1384 337.171C93.1074 337.035 93.1253 336.914 93.192 336.808C93.2587 336.702 93.36 336.633 93.4958 336.602L102.202 334.615C102.325 334.587 102.446 334.605 102.565 334.669C102.671 334.736 102.74 334.837 102.771 334.973L103.27 337.158Z" fill="black" fill-opacity="0.9"/>
<path d="M100.772 324.795C100.793 324.933 100.766 325.052 100.691 325.153C100.617 325.254 100.511 325.314 100.373 325.335L91.5428 326.666C91.405 326.687 91.2857 326.66 91.1848 326.586C91.0839 326.511 91.0231 326.405 91.0023 326.267L90.6767 324.107C90.6559 323.969 90.6827 323.85 90.7572 323.749C90.8298 323.635 90.9349 323.568 91.0727 323.547L91.7867 323.44C91.3224 323.164 90.9253 322.782 90.5955 322.294C90.2638 321.793 90.047 321.204 89.9451 320.528C89.7789 319.426 90.0197 318.473 90.6674 317.671C91.3025 316.871 92.2902 316.37 93.6304 316.168L98.8722 315.378C98.9975 315.359 99.1168 315.386 99.2302 315.458C99.3311 315.533 99.3919 315.639 99.4127 315.777L99.7695 318.144C99.7884 318.269 99.7615 318.388 99.689 318.502C99.602 318.605 99.4959 318.666 99.3706 318.684L94.2415 319.457C93.6529 319.546 93.2237 319.758 92.9539 320.093C92.6717 320.431 92.5712 320.869 92.6524 321.407C92.7317 321.933 92.9568 322.322 93.3277 322.573C93.6862 322.827 94.1597 322.909 94.7484 322.82L99.8775 322.047C100.003 322.029 100.122 322.055 100.235 322.128C100.336 322.202 100.397 322.309 100.418 322.446L100.772 324.795Z" fill="black" fill-opacity="0.9"/>
<path d="M102.753 305.618C102.843 306.818 102.72 307.805 102.384 308.58C102.048 309.354 101.64 309.925 101.159 310.291C100.678 310.645 100.266 310.834 99.9254 310.86C99.8118 310.868 99.7069 310.825 99.6109 310.731C99.5149 310.637 99.4622 310.526 99.4527 310.4L99.2724 307.994C99.263 307.867 99.2811 307.771 99.3269 307.704C99.3844 307.623 99.4802 307.546 99.6144 307.473C99.8955 307.325 100.11 307.137 100.258 306.91C100.419 306.682 100.482 306.341 100.448 305.886C100.405 305.305 100.227 304.886 99.9159 304.63C99.6172 304.373 99.1331 304.27 98.4636 304.32L97.1942 304.415C97.9498 305.006 98.3726 305.902 98.4625 307.102C98.5581 308.377 98.2588 309.384 97.5647 310.122C96.857 310.849 95.7919 311.297 94.3693 311.467L93.8591 311.524C92.3307 311.639 91.1052 311.388 90.1825 310.771C89.2472 310.155 88.7294 309.178 88.6291 307.839C88.5808 307.194 88.6645 306.617 88.8802 306.105C89.0833 305.594 89.3805 305.153 89.7717 304.781L89.0707 304.833C88.9318 304.844 88.8148 304.808 88.7197 304.726C88.6237 304.632 88.571 304.521 88.5615 304.395L88.3983 302.216C88.3878 302.077 88.4299 301.96 88.5243 301.864C88.6051 301.756 88.7087 301.698 88.835 301.688L97.9485 301.005C99.3884 300.897 100.52 301.244 101.342 302.046C102.164 302.849 102.634 304.039 102.753 305.618ZM95.9227 306.263C95.8801 305.695 95.6779 305.284 95.316 305.032C94.9415 304.781 94.4876 304.656 93.9543 304.658C93.8649 304.652 93.6686 304.66 93.3655 304.683C93.075 304.705 92.886 304.725 92.7985 304.744C92.2699 304.809 91.8459 305 91.5267 305.316C91.1938 305.62 91.0487 306.057 91.0913 306.625C91.1358 307.219 91.3448 307.635 91.7183 307.874C92.0919 308.113 92.5891 308.221 93.2099 308.2L93.6282 308.188C94.3734 308.132 94.9576 307.961 95.3808 307.676C95.7913 307.391 95.972 306.92 95.9227 306.263Z" fill="black" fill-opacity="0.9"/>
<path d="M98.8776 278.293C98.7877 279.493 98.5337 280.509 98.1156 281.341C97.6976 282.174 97.1878 282.79 96.5863 283.189C95.973 283.575 95.3244 283.755 94.6405 283.729C94.5394 283.722 94.4538 283.677 94.3837 283.596C94.3019 283.501 94.2653 283.396 94.2738 283.283L94.4527 280.895C94.4641 280.744 94.5046 280.626 94.5744 280.542C94.6325 280.445 94.7222 280.35 94.8435 280.258C95.1842 280.118 95.4756 279.873 95.7178 279.523C95.96 279.173 96.1038 278.695 96.1492 278.088C96.2032 277.368 96.1307 276.81 95.9317 276.414C95.7327 276.018 95.4375 275.806 95.0459 275.776C94.768 275.755 94.5331 275.839 94.3411 276.028C94.1501 276.205 93.9695 276.496 93.7993 276.902C93.6291 277.309 93.4248 277.916 93.1865 278.724C92.7571 280.216 92.2109 281.318 91.5478 282.03C90.873 282.729 89.9672 283.036 88.8304 282.951C88.0599 282.893 87.3876 282.627 86.8134 282.152C86.2393 281.677 85.8116 281.029 85.5302 280.208C85.2487 279.386 85.1478 278.445 85.2273 277.384C85.3097 276.285 85.5706 275.346 86.0101 274.566C86.4496 273.786 86.9755 273.209 87.5878 272.836C88.1884 272.449 88.7675 272.264 89.3252 272.28C89.4389 272.289 89.5308 272.334 89.6009 272.415C89.671 272.496 89.7018 272.594 89.6933 272.708L89.5058 275.209C89.4945 275.36 89.4598 275.485 89.4017 275.582C89.3445 275.667 89.2562 275.743 89.1369 275.81C88.8407 275.864 88.5788 276.054 88.3511 276.38C88.1244 276.693 87.9926 277.096 87.9557 277.589C87.9131 278.157 87.9815 278.6 88.1608 278.919C88.3402 279.237 88.6257 279.411 89.0173 279.44C89.2825 279.46 89.5097 279.394 89.6989 279.243C89.889 279.08 90.074 278.814 90.254 278.447C90.4222 278.066 90.6092 277.521 90.8147 276.812C91.1174 275.653 91.4591 274.739 91.8395 274.069C92.2083 273.385 92.664 272.899 93.2065 272.609C93.7363 272.318 94.3865 272.202 95.157 272.26C96.0033 272.323 96.7238 272.625 97.3184 273.165C97.9014 273.691 98.3307 274.403 98.6065 275.3C98.8705 276.184 98.9609 277.181 98.8776 278.293Z" fill="black" fill-opacity="0.9"/>
<path d="M100.503 263.86C100.269 265.413 99.7192 266.554 98.8537 267.281C97.9882 268.009 96.8797 268.31 95.5282 268.183C95.3635 268.171 95.0807 268.135 94.6799 268.074C94.2791 268.014 93.9983 267.965 93.8373 267.928C92.521 267.653 91.5584 267.027 90.9497 266.052C90.3285 265.074 90.1311 263.834 90.3577 262.331C90.5861 260.815 91.1412 259.682 92.023 258.931C92.8922 258.178 93.9963 257.864 95.3353 257.989C95.5001 258.001 95.7828 258.037 96.1836 258.098C96.5844 258.158 96.8653 258.207 97.0262 258.244C98.3551 258.521 99.3258 259.135 99.9383 260.086C100.551 261.036 100.739 262.294 100.503 263.86ZM98.211 263.515C98.294 262.963 98.1925 262.532 97.9065 262.22C97.608 261.906 97.1171 261.678 96.4339 261.537C96.3105 261.505 96.061 261.461 95.6852 261.405C95.3095 261.348 95.058 261.316 94.9309 261.31C94.2489 261.246 93.718 261.326 93.3383 261.55C92.9604 261.762 92.7309 262.138 92.6498 262.676C92.4931 263.716 93.0864 264.369 94.4296 264.635L95.1783 264.768L95.9327 264.862C96.6253 264.941 97.1606 264.874 97.5384 264.662C97.9056 264.436 98.1298 264.053 98.211 263.515Z" fill="black" fill-opacity="0.9"/>
<path d="M103.203 249.587C102.853 251.118 102.22 252.214 101.302 252.876C100.385 253.537 99.257 253.753 97.9187 253.526C97.7554 253.502 97.4761 253.444 97.0809 253.354C96.6858 253.264 96.4093 253.194 96.2516 253.145C94.9595 252.773 94.0464 252.077 93.5123 251.059C92.9658 250.037 92.8617 248.786 93.1999 247.304C93.541 245.81 94.1792 244.721 95.1147 244.038C96.0377 243.352 97.1622 243.122 98.4882 243.346C98.6515 243.371 98.9308 243.428 99.3259 243.518C99.7211 243.608 99.9976 243.678 100.155 243.727C101.46 244.103 102.382 244.787 102.922 245.781C103.461 246.775 103.555 248.043 103.203 249.587ZM100.943 249.071C101.067 248.528 100.998 248.09 100.736 247.757C100.462 247.422 99.9893 247.158 99.3186 246.966C99.1979 246.925 98.9523 246.863 98.5818 246.778C98.2114 246.694 97.963 246.644 97.8367 246.628C97.1614 246.513 96.626 246.553 96.2306 246.748C95.8379 246.932 95.581 247.289 95.4598 247.82C95.2259 248.845 95.7687 249.54 97.0883 249.906L97.825 250.094L98.5702 250.245C99.2551 250.375 99.7938 250.349 100.186 250.165C100.569 249.967 100.822 249.602 100.943 249.071Z" fill="black" fill-opacity="0.9"/>
<path d="M105.884 238.403C105.843 238.537 105.767 238.632 105.656 238.691C105.545 238.75 105.423 238.758 105.29 238.717L96.7569 236.085C96.6237 236.044 96.5279 235.968 96.4693 235.857C96.4107 235.746 96.4019 235.624 96.443 235.491L97.087 233.403C97.1281 233.27 97.2041 233.174 97.3149 233.116C97.4295 233.045 97.5534 233.03 97.6865 233.071L98.3765 233.284C98.0778 232.834 97.8859 232.318 97.8006 231.734C97.7191 231.139 97.7791 230.515 97.9807 229.861C98.3093 228.796 98.9394 228.043 99.8709 227.601C100.79 227.156 101.898 227.133 103.193 227.532L108.258 229.095C108.379 229.132 108.475 229.208 108.546 229.323C108.605 229.433 108.613 229.555 108.572 229.689L107.867 231.976C107.829 232.097 107.753 232.193 107.639 232.264C107.516 232.319 107.394 232.327 107.273 232.29L102.316 230.761C101.747 230.586 101.269 230.591 100.88 230.776C100.48 230.957 100.199 231.308 100.038 231.828C99.8816 232.337 99.9157 232.785 100.141 233.172C100.354 233.556 100.745 233.836 101.314 234.011L106.27 235.54C106.391 235.577 106.487 235.653 106.558 235.768C106.616 235.879 106.625 236.001 106.584 236.134L105.884 238.403Z" fill="black" fill-opacity="0.9"/>
<path d="M112.841 207.919C112.781 208.044 112.691 208.128 112.573 208.169C112.455 208.211 112.333 208.201 112.207 208.141L110.598 207.366C110.473 207.305 110.389 207.216 110.348 207.098C110.306 206.979 110.316 206.857 110.376 206.732L112.957 201.374C113.017 201.248 113.106 201.165 113.225 201.123C113.349 201.07 113.473 201.074 113.599 201.135L115.208 201.91C115.334 201.97 115.414 202.065 115.45 202.195C115.492 202.313 115.482 202.435 115.422 202.561L112.841 207.919Z" fill="black" fill-opacity="0.9"/>
<path d="M132.151 183.283C131.131 184.78 129.97 185.706 128.67 186.061C127.367 186.399 126.006 186.123 124.589 185.233C124.3 185.051 123.836 184.743 123.197 184.307C122.548 183.865 122.081 183.539 121.795 183.328C120.47 182.348 119.734 181.18 119.586 179.822C119.428 178.457 119.849 177.042 120.848 175.577C121.476 174.656 122.197 173.936 123.01 173.418C123.813 172.892 124.645 172.616 125.506 172.59C126.364 172.546 127.178 172.779 127.949 173.29L127.981 173.311C128.064 173.368 128.113 173.455 128.125 173.571C128.135 173.669 128.111 173.761 128.054 173.844L126.609 175.964C126.516 176.1 126.419 176.186 126.317 176.224C126.204 176.254 126.051 176.242 125.859 176.188C125.225 175.97 124.696 175.947 124.273 176.118C123.839 176.283 123.447 176.621 123.098 177.134C122.256 178.369 122.511 179.478 123.864 180.462C124.14 180.665 124.57 180.966 125.157 181.366C125.743 181.766 126.191 182.064 126.502 182.26C127.912 183.16 129.038 182.993 129.88 181.758C130.229 181.245 130.405 180.751 130.406 180.277C130.397 179.796 130.179 179.317 129.752 178.842C129.623 178.693 129.558 178.564 129.556 178.455C129.543 178.339 129.586 178.208 129.686 178.061L131.131 175.942C131.195 175.848 131.28 175.791 131.386 175.771C131.499 175.74 131.598 175.762 131.685 175.837C132.442 176.368 132.962 177.045 133.245 177.866C133.525 178.67 133.572 179.546 133.387 180.492C133.191 181.432 132.779 182.362 132.151 183.283Z" fill="black" fill-opacity="0.9"/>
<path d="M140.706 171.698C139.726 172.926 138.68 173.639 137.566 173.837C136.453 174.034 135.343 173.74 134.236 172.954C134.099 172.862 133.872 172.689 133.555 172.436C133.239 172.184 133.02 172.001 132.899 171.888C131.896 170.992 131.376 169.969 131.336 168.82C131.287 167.662 131.736 166.49 132.684 165.301C133.64 164.103 134.687 163.399 135.826 163.19C136.955 162.972 138.068 163.252 139.166 164.03C139.302 164.123 139.529 164.296 139.846 164.548C140.163 164.801 140.382 164.984 140.502 165.096C141.515 166.001 142.048 167.018 142.104 168.147C142.159 169.277 141.693 170.46 140.706 171.698ZM138.893 170.253C139.241 169.817 139.369 169.393 139.277 168.979C139.175 168.558 138.864 168.116 138.343 167.652C138.252 167.563 138.058 167.4 137.761 167.163C137.464 166.926 137.262 166.773 137.155 166.704C136.596 166.307 136.097 166.111 135.655 166.116C135.222 166.11 134.836 166.321 134.496 166.746C133.841 167.568 134.028 168.431 135.058 169.333L135.64 169.822L136.246 170.281C136.807 170.695 137.304 170.905 137.737 170.911C138.168 170.898 138.554 170.679 138.893 170.253Z" fill="black" fill-opacity="0.9"/>
<path d="M146.207 164.69C146.112 164.792 146.002 164.845 145.877 164.85C145.752 164.855 145.638 164.81 145.536 164.715L138.99 158.641C138.888 158.546 138.834 158.436 138.83 158.311C138.825 158.185 138.87 158.072 138.965 157.97L140.373 156.451C140.468 156.349 140.578 156.296 140.703 156.291C140.829 156.286 140.942 156.332 141.045 156.426L141.518 156.866C141.438 156.394 141.473 155.899 141.624 155.383C141.774 154.848 142.056 154.358 142.47 153.913C143.418 152.891 144.472 152.556 145.632 152.907C145.486 152.357 145.487 151.779 145.634 151.173C145.782 150.567 146.067 150.036 146.489 149.581C147.195 148.82 148.028 148.443 148.988 148.452C149.946 148.443 150.936 148.913 151.958 149.86L155.913 153.531C156.006 153.617 156.06 153.727 156.074 153.861C156.078 153.986 156.033 154.1 155.938 154.202L154.439 155.818C154.345 155.92 154.23 155.978 154.096 155.992C153.971 155.996 153.857 155.951 153.755 155.857L149.897 152.277C149.433 151.846 149.008 151.633 148.623 151.639C148.246 151.635 147.907 151.796 147.606 152.121C147.33 152.418 147.209 152.763 147.241 153.156C147.264 153.541 147.504 153.944 147.959 154.366L151.817 157.946C151.91 158.032 151.963 158.142 151.977 158.276C151.982 158.401 151.937 158.515 151.842 158.617L150.343 160.233C150.248 160.335 150.138 160.388 150.013 160.393C149.887 160.398 149.774 160.353 149.671 160.258L145.813 156.678C145.358 156.256 144.934 156.052 144.54 156.067C144.146 156.064 143.806 156.215 143.522 156.522C143.246 156.819 143.12 157.169 143.144 157.571C143.168 157.956 143.402 158.355 143.848 158.768L147.72 162.361C147.813 162.447 147.866 162.557 147.88 162.691C147.885 162.816 147.84 162.93 147.745 163.032L146.207 164.69Z" fill="black" fill-opacity="0.9"/>
<path d="M151.805 142.756C151.703 142.851 151.589 142.896 151.464 142.891C151.338 142.887 151.228 142.833 151.134 142.731L149.971 141.478C149.876 141.376 149.831 141.262 149.835 141.136C149.84 141.011 149.893 140.901 149.996 140.806L151.667 139.256C151.769 139.161 151.883 139.116 152.008 139.12C152.133 139.125 152.243 139.179 152.338 139.281L153.501 140.534C153.596 140.636 153.641 140.75 153.636 140.875C153.632 141.001 153.578 141.111 153.476 141.205L151.805 142.756ZM159.508 151.031C159.406 151.125 159.292 151.17 159.167 151.166C159.042 151.161 158.932 151.108 158.837 151.005L152.763 144.459C152.668 144.357 152.623 144.243 152.628 144.118C152.633 143.993 152.686 143.883 152.788 143.788L154.432 142.263C154.534 142.168 154.647 142.123 154.773 142.128C154.898 142.133 155.008 142.186 155.103 142.288L161.177 148.834C161.263 148.927 161.308 149.041 161.312 149.175C161.307 149.301 161.254 149.411 161.152 149.506L159.508 151.031Z" fill="black" fill-opacity="0.9"/>
<path d="M168.966 142.685C168.857 142.772 168.741 142.808 168.616 142.794C168.492 142.78 168.386 142.719 168.299 142.61L162.731 135.628C162.644 135.519 162.608 135.402 162.622 135.278C162.636 135.153 162.697 135.048 162.806 134.961L164.515 133.598C164.624 133.511 164.74 133.475 164.865 133.489C164.999 133.495 165.11 133.553 165.197 133.662L165.647 134.226C165.654 133.686 165.786 133.151 166.044 132.621C166.312 132.084 166.714 131.602 167.248 131.175C168.12 130.48 169.065 130.213 170.083 130.373C171.094 130.522 172.022 131.127 172.867 132.187L176.172 136.331C176.251 136.43 176.287 136.547 176.281 136.682C176.267 136.806 176.206 136.912 176.097 136.999L174.225 138.492C174.126 138.571 174.009 138.607 173.875 138.601C173.742 138.577 173.636 138.515 173.558 138.416L170.323 134.361C169.952 133.896 169.554 133.63 169.129 133.564C168.696 133.488 168.266 133.62 167.84 133.96C167.425 134.291 167.2 134.681 167.168 135.128C167.128 135.565 167.293 136.016 167.664 136.481L170.898 140.537C170.977 140.636 171.014 140.753 171.008 140.887C170.994 141.012 170.932 141.117 170.823 141.204L168.966 142.685Z" fill="black" fill-opacity="0.9"/>
<path d="M186.564 134.812C185.57 135.49 184.654 135.877 183.815 135.974C182.976 136.07 182.278 136.002 181.721 135.769C181.174 135.529 180.804 135.267 180.611 134.985C180.547 134.891 180.532 134.778 180.565 134.648C180.599 134.518 180.668 134.417 180.773 134.345L182.767 132.986C182.872 132.915 182.964 132.882 183.045 132.888C183.144 132.898 183.258 132.942 183.389 133.022C183.658 133.191 183.928 133.283 184.198 133.298C184.476 133.323 184.803 133.207 185.18 132.95C185.662 132.622 185.935 132.259 186.001 131.862C186.075 131.474 185.922 131.003 185.544 130.449L184.827 129.397C184.693 130.347 184.129 131.161 183.134 131.839C182.077 132.559 181.056 132.804 180.07 132.571C179.087 132.322 178.166 131.623 177.307 130.476L177.003 130.063C176.139 128.797 175.744 127.61 175.817 126.503C175.883 125.385 176.47 124.447 177.579 123.691C178.113 123.327 178.656 123.111 179.206 123.042C179.75 122.962 180.281 122.999 180.799 123.152L180.403 122.571C180.325 122.456 180.297 122.337 180.32 122.213C180.354 122.083 180.423 121.982 180.528 121.911L182.333 120.68C182.448 120.602 182.571 120.579 182.701 120.613C182.835 120.629 182.938 120.69 183.009 120.794L188.157 128.345C188.971 129.538 189.236 130.691 188.952 131.805C188.668 132.918 187.873 133.92 186.564 134.812ZM182.591 129.22C183.062 128.899 183.316 128.518 183.354 128.079C183.384 127.629 183.265 127.173 182.997 126.712C182.957 126.632 182.852 126.466 182.681 126.215C182.517 125.974 182.404 125.821 182.344 125.755C182.023 125.33 181.646 125.058 181.213 124.939C180.783 124.803 180.332 124.896 179.861 125.217C179.37 125.552 179.114 125.941 179.094 126.384C179.074 126.827 179.228 127.312 179.557 127.839L179.776 128.195C180.197 128.813 180.637 129.233 181.096 129.457C181.548 129.67 182.046 129.591 182.591 129.22Z" fill="black" fill-opacity="0.9"/>
<path d="M208.291 117.794C207.207 118.316 206.2 118.604 205.27 118.658C204.34 118.712 203.552 118.579 202.905 118.258C202.264 117.92 201.784 117.448 201.465 116.843C201.421 116.751 201.416 116.655 201.452 116.554C201.493 116.435 201.565 116.351 201.668 116.302L203.825 115.263C203.962 115.197 204.084 115.173 204.191 115.192C204.305 115.194 204.432 115.224 204.572 115.283C204.864 115.508 205.222 115.638 205.646 115.673C206.07 115.707 206.556 115.593 207.104 115.329C207.755 115.016 208.202 114.674 208.445 114.303C208.689 113.933 208.725 113.571 208.555 113.217C208.434 112.966 208.244 112.805 207.984 112.733C207.736 112.656 207.393 112.645 206.956 112.701C206.519 112.757 205.891 112.883 205.073 113.081C203.566 113.455 202.338 113.533 201.389 113.315C200.447 113.08 199.728 112.449 199.234 111.422C198.898 110.726 198.793 110.01 198.917 109.276C199.041 108.541 199.389 107.846 199.959 107.192C200.53 106.538 201.294 105.98 202.253 105.518C203.246 105.04 204.19 104.796 205.085 104.787C205.981 104.777 206.743 104.945 207.372 105.288C208.008 105.615 208.458 106.024 208.722 106.515C208.772 106.618 208.779 106.72 208.743 106.821C208.708 106.923 208.639 106.998 208.536 107.048L206.276 108.136C206.139 108.202 206.014 108.234 205.901 108.232C205.799 108.225 205.689 108.186 205.571 108.117C205.376 107.887 205.081 107.755 204.685 107.721C204.3 107.681 203.885 107.769 203.44 107.983C202.927 108.23 202.577 108.511 202.391 108.826C202.205 109.14 202.197 109.474 202.368 109.828C202.483 110.068 202.653 110.232 202.879 110.32C203.115 110.403 203.438 110.43 203.846 110.403C204.26 110.358 204.826 110.247 205.542 110.071C206.697 109.754 207.66 109.592 208.43 109.587C209.207 109.564 209.856 109.716 210.378 110.041C210.895 110.354 211.32 110.859 211.656 111.555C212.024 112.32 212.123 113.095 211.953 113.88C211.788 114.648 211.386 115.375 210.747 116.063C210.114 116.733 209.296 117.31 208.291 117.794Z" fill="black" fill-opacity="0.9"/>
<path d="M221.603 111.985C220.141 112.559 218.879 112.653 217.816 112.267C216.752 111.882 215.938 111.072 215.372 109.838C215.3 109.689 215.19 109.426 215.042 109.049C214.894 108.672 214.796 108.404 214.747 108.246C214.328 106.969 214.388 105.822 214.929 104.807C215.464 103.781 216.44 102.99 217.855 102.434C219.282 101.874 220.541 101.788 221.632 102.177C222.718 102.553 223.542 103.352 224.104 104.574C224.176 104.723 224.286 104.986 224.434 105.363C224.582 105.741 224.68 106.008 224.728 106.166C225.153 107.455 225.106 108.603 224.59 109.609C224.073 110.615 223.077 111.407 221.603 111.985ZM220.756 109.827C221.275 109.624 221.598 109.32 221.726 108.916C221.848 108.501 221.8 107.962 221.581 107.299C221.546 107.177 221.46 106.939 221.321 106.585C221.182 106.231 221.084 105.998 221.025 105.884C220.74 105.262 220.405 104.842 220.021 104.625C219.648 104.404 219.209 104.393 218.702 104.592C217.723 104.976 217.454 105.816 217.895 107.113L218.155 107.827L218.45 108.528C218.728 109.167 219.054 109.597 219.426 109.819C219.806 110.023 220.249 110.026 220.756 109.827Z" fill="black" fill-opacity="0.9"/>
<path d="M235.314 107.186C233.813 107.649 232.547 107.649 231.515 107.185C230.484 106.721 229.732 105.853 229.26 104.58C229.2 104.426 229.11 104.156 228.99 103.768C228.871 103.381 228.793 103.107 228.756 102.946C228.433 101.64 228.579 100.502 229.194 99.5301C229.805 98.5463 230.837 97.8303 232.289 97.3823C233.754 96.9305 235.016 96.939 236.075 97.4076C237.131 97.8641 237.892 98.7227 238.361 99.9833C238.421 100.137 238.512 100.407 238.631 100.795C238.75 101.182 238.828 101.456 238.865 101.617C239.192 102.935 239.06 104.076 238.469 105.04C237.878 106.004 236.827 106.72 235.314 107.186ZM234.63 104.971C235.163 104.807 235.508 104.528 235.665 104.135C235.818 103.73 235.81 103.189 235.641 102.512C235.616 102.387 235.548 102.143 235.436 101.78C235.324 101.417 235.243 101.177 235.193 101.06C234.955 100.417 234.653 99.9738 234.286 99.7291C233.931 99.4807 233.493 99.4368 232.973 99.5973C231.968 99.9072 231.637 100.725 231.98 102.051L232.186 102.783L232.428 103.503C232.657 104.162 232.95 104.615 233.305 104.863C233.668 105.096 234.11 105.132 234.63 104.971Z" fill="black" fill-opacity="0.9"/>
<path d="M246.34 103.917C246.204 103.948 246.083 103.93 245.977 103.863C245.871 103.797 245.802 103.695 245.771 103.56L243.784 94.8534C243.753 94.7176 243.771 94.5966 243.837 94.4904C243.904 94.3842 244.005 94.3156 244.141 94.2846L246.271 93.7984C246.407 93.7674 246.528 93.7853 246.634 93.852C246.753 93.9159 246.828 94.0158 246.859 94.1516L247.019 94.8555C247.26 94.3719 247.611 93.9474 248.073 93.582C248.548 93.2138 249.119 92.9536 249.786 92.8014C250.872 92.5534 251.84 92.7223 252.688 93.3083C253.534 93.8818 254.107 94.8293 254.409 96.1507L255.588 101.319C255.617 101.442 255.599 101.563 255.535 101.682C255.468 101.788 255.367 101.857 255.231 101.888L252.897 102.42C252.774 102.448 252.653 102.431 252.534 102.367C252.425 102.288 252.357 102.186 252.328 102.063L251.174 97.0059C251.042 96.4255 250.798 96.0133 250.444 95.7694C250.086 95.5132 249.642 95.4457 249.111 95.5669C248.593 95.6853 248.222 95.9388 247.999 96.3275C247.773 96.7039 247.726 97.1823 247.858 97.7627L249.013 102.82C249.041 102.943 249.023 103.064 248.959 103.183C248.892 103.289 248.791 103.357 248.655 103.388L246.34 103.917Z" fill="black" fill-opacity="0.9"/>
<path d="M276.219 94.6998C276.08 94.7102 275.963 94.6745 275.868 94.5927C275.773 94.5109 275.72 94.4006 275.71 94.2616L275.576 92.4806C275.566 92.3417 275.601 92.2247 275.683 92.1296C275.765 92.0346 275.875 91.9819 276.014 91.9715L281.945 91.527C282.084 91.5166 282.201 91.5523 282.296 91.6341C282.403 91.7149 282.462 91.8248 282.473 91.9638L282.606 93.7448C282.617 93.8837 282.575 94.0012 282.48 94.0972C282.398 94.1922 282.288 94.245 282.149 94.2554L276.219 94.6998Z" fill="black" fill-opacity="0.9"/>
</svg>
